<svg width="1093" height="1820" viewBox="0 0 1093 1820" fill="none" xmlns="http://www.w3.org/2000/svg">
<path d="M40.8966 11.6002C35.0056 11.6074 30.2367 16.3888 30.245 22.2798C30.2533 28.1708 35.0357 32.9407 40.9267 32.9336C46.8177 32.9264 51.5866 28.145 51.5783 22.254C51.57 16.363 46.7876 11.5931 40.8966 11.6002ZM40.9459 361.462L42.9459 361.462L40.9459 361.462ZM160.975 481.474L160.975 479.474L160.975 481.474ZM968.779 481.438L968.779 483.438L968.779 481.438ZM1088.81 601.475L1086.81 601.474L1088.81 601.475ZM1088.8 667.304L1090.8 667.305L1088.8 667.304ZM968.825 787.268L968.825 789.268L968.825 787.268ZM160.934 787.268L160.934 785.268L160.934 787.268ZM40.958 907.244L42.958 907.244L40.958 907.244ZM40.9579 971.244L38.9579 971.243L40.9579 971.244ZM160.982 1091.27L160.981 1089.27L160.982 1091.27ZM968.777 1091.27L968.776 1089.27L968.777 1091.27ZM1088.8 1211.28L1090.8 1211.28L1088.8 1211.28ZM1088.81 1281.78L1086.81 1281.78L1088.81 1281.78ZM968.832 1401.77L968.832 1399.77L968.832 1401.77ZM149.51 1401.77L149.51 1399.77L149.51 1401.77ZM29.5342 1521.74L27.5342 1521.74L29.5342 1521.74ZM28.1201 1822.68C28.9012 1823.46 30.1676 1823.46 30.9486 1822.68L43.6765 1809.96C44.4575 1809.18 44.4576 1807.91 43.6764 1807.13C42.8954 1806.35 41.6291 1806.35 40.8481 1807.13L29.5344 1818.44L18.2206 1807.12C17.4396 1806.34 16.1732 1806.34 15.3922 1807.12C14.6112 1807.9 14.6112 1809.17 15.3922 1809.95L28.1201 1822.68ZM38.9116 22.2667L38.9129 34.8295L42.9129 34.8299L42.9116 22.2671L38.9116 22.2667ZM38.9142 47.3922L38.9168 72.5178L42.9168 72.5182L42.9142 47.3926L38.9142 47.3922ZM38.918 85.0806L38.9205 110.206L42.9205 110.206L42.918 85.0809L38.918 85.0806ZM38.9218 122.769L38.9243 147.894L42.9243 147.895L42.9218 122.769L38.9218 122.769ZM38.9255 160.457L38.9281 185.583L42.9281 185.583L42.9255 160.458L38.9255 160.457ZM38.9294 198.145L38.932 223.271L42.932 223.271L42.9294 198.146L38.9294 198.145ZM38.9332 235.834L38.9358 260.959L42.9358 260.96L42.9332 235.834L38.9332 235.834ZM38.937 273.522L38.9396 298.648L42.9396 298.648L42.937 273.523L38.937 273.522ZM38.9408 311.21L38.9433 336.336L42.9433 336.336L42.9408 311.211L38.9408 311.21ZM38.9447 348.899L38.9459 361.461L42.9459 361.462L42.9447 348.899L38.9447 348.899ZM38.9459 361.461C38.9463 365.768 39.17 370.024 39.6061 374.216L43.5846 373.803C43.1628 369.748 42.9463 365.63 42.9459 361.462L38.9459 361.461ZM41.5913 386.836C43.3786 395.28 46.039 403.402 49.4738 411.103L53.127 409.474C49.8054 402.028 47.2328 394.174 45.5045 386.009L41.5913 386.836ZM55.2832 422.479C59.5672 429.882 64.6064 436.792 70.2951 443.105L73.2663 440.428C67.763 434.321 62.8886 427.636 58.7451 420.476L55.2832 422.479ZM79.3273 452.136C85.6411 457.824 92.5522 462.862 99.9554 467.145L101.958 463.683C94.7976 459.54 88.1123 454.667 82.0042 449.165L79.3273 452.136ZM111.333 472.953C119.034 476.386 127.156 479.046 135.6 480.832L136.427 476.918C128.262 475.191 120.408 472.62 112.961 469.299L111.333 472.953ZM148.221 482.815C152.413 483.251 156.669 483.474 160.976 483.474L160.975 479.474C156.806 479.474 152.689 479.258 148.633 478.837L148.221 482.815ZM160.976 483.474L173.215 483.473L173.214 479.473L160.975 479.474L160.976 483.474ZM185.455 483.472L209.933 483.471L209.932 479.471L185.454 479.472L185.455 483.472ZM222.173 483.471L246.652 483.47L246.651 479.47L222.172 479.471L222.173 483.471ZM258.891 483.469L283.37 483.468L283.369 479.468L258.89 479.469L258.891 483.469ZM295.61 483.468L320.088 483.466L320.087 479.466L295.609 479.468L295.61 483.468ZM332.328 483.466L356.807 483.465L356.806 479.465L332.327 479.466L332.328 483.466ZM369.046 483.464L393.525 483.463L393.524 479.463L369.045 479.464L369.046 483.464ZM405.765 483.463L430.243 483.462L430.242 479.462L405.764 479.463L405.765 483.463ZM442.483 483.461L466.962 483.46L466.961 479.46L442.482 479.461L442.483 483.461ZM479.201 483.459L503.68 483.458L503.679 479.458L479.2 479.459L479.201 483.459ZM515.92 483.458L540.398 483.457L540.397 479.457L515.919 479.458L515.92 483.458ZM552.638 483.456L577.117 483.455L577.116 479.455L552.637 479.456L552.638 483.456ZM589.356 483.454L613.835 483.453L613.834 479.453L589.355 479.454L589.356 483.454ZM626.075 483.453L650.553 483.452L650.552 479.452L626.074 479.453L626.075 483.453ZM662.793 483.451L687.272 483.45L687.271 479.45L662.792 479.451L662.793 483.451ZM699.511 483.45L723.99 483.449L723.989 479.449L699.51 479.45L699.511 483.45ZM736.23 483.448L760.708 483.447L760.708 479.447L736.229 479.448L736.23 483.448ZM772.948 483.446L797.427 483.445L797.426 479.445L772.947 479.446L772.948 483.446ZM809.666 483.445L834.145 483.444L834.144 479.444L809.665 479.445L809.666 483.445ZM846.385 483.443L870.863 483.442L870.863 479.442L846.384 479.443L846.385 483.443ZM883.103 483.441L907.582 483.44L907.581 479.44L883.102 479.441L883.103 483.441ZM919.821 483.44L944.3 483.439L944.299 479.439L919.82 479.44L919.821 483.44ZM956.54 483.438L968.779 483.438L968.778 479.438L956.539 479.438L956.54 483.438ZM968.779 483.438C972.948 483.437 977.066 483.653 981.123 484.075L981.535 480.096C977.342 479.661 973.086 479.437 968.778 479.438L968.779 483.438ZM993.33 485.993C1001.5 487.721 1009.35 490.293 1016.8 493.614L1018.43 489.961C1010.73 486.527 1002.6 483.867 994.157 482.08L993.33 485.993ZM1027.8 499.232C1034.96 503.376 1041.65 508.251 1047.76 513.754L1050.44 510.783C1044.12 505.094 1037.21 500.054 1029.81 495.77L1027.8 499.232ZM1056.5 522.493C1062 528.602 1066.87 535.288 1071.02 542.449L1074.48 540.447C1070.2 533.042 1065.16 526.13 1059.47 519.816L1056.5 522.493ZM1076.63 553.453C1079.95 560.901 1082.53 568.757 1084.25 576.923L1088.17 576.096C1086.38 567.651 1083.72 559.527 1080.29 551.825L1076.63 553.453ZM1086.17 589.131C1086.59 593.187 1086.81 597.305 1086.81 601.474L1090.81 601.475C1090.81 597.168 1090.59 592.912 1090.15 588.718L1086.17 589.131ZM1086.81 601.474L1086.81 612.446L1090.81 612.447L1090.81 601.475L1086.81 601.474ZM1086.81 623.417L1086.8 645.361L1090.8 645.362L1090.81 623.418L1086.81 623.417ZM1086.8 656.332L1086.8 667.304L1090.8 667.305L1090.8 656.333L1086.8 656.332ZM1086.8 667.304C1086.8 671.471 1086.58 675.587 1086.16 679.642L1090.14 680.056C1090.58 675.865 1090.8 671.611 1090.8 667.305L1086.8 667.304ZM1084.24 691.843C1082.52 700.005 1079.94 707.856 1076.63 715.299L1080.28 716.929C1083.71 709.231 1086.37 701.113 1088.16 692.672L1084.24 691.843ZM1071.01 726.296C1066.87 733.453 1062 740.135 1056.5 746.239L1059.47 748.917C1065.15 742.607 1070.19 735.7 1074.47 728.3L1071.01 726.296ZM1047.76 754.972C1041.66 760.471 1034.98 765.343 1027.82 769.483L1029.82 772.945C1037.22 768.665 1044.13 763.629 1050.44 757.944L1047.76 754.972ZM1016.82 775.097C1009.38 778.416 1001.53 780.986 993.363 782.713L994.192 786.626C1002.63 784.841 1010.75 782.183 1018.45 778.75L1016.82 775.097ZM981.162 784.63C977.108 785.052 972.991 785.268 968.824 785.268L968.825 789.268C973.131 789.268 977.385 789.044 981.576 788.609L981.162 784.63ZM968.824 785.268L956.583 785.268L956.584 789.268L968.825 789.268L968.824 785.268ZM944.343 785.268L919.861 785.268L919.862 789.268L944.343 789.268L944.343 785.268ZM907.62 785.268L883.139 785.268L883.14 789.268L907.621 789.268L907.62 785.268ZM870.898 785.268L846.417 785.268L846.417 789.268L870.899 789.268L870.898 785.268ZM834.176 785.268L809.694 785.268L809.695 789.268L834.177 789.268L834.176 785.268ZM797.453 785.268L772.972 785.268L772.973 789.268L797.454 789.268L797.453 785.268ZM760.731 785.268L736.25 785.268L736.25 789.268L760.732 789.268L760.731 785.268ZM724.009 785.268L699.527 785.268L699.528 789.268L724.01 789.268L724.009 785.268ZM687.287 785.268L662.805 785.268L662.806 789.268L687.287 789.268L687.287 785.268ZM650.564 785.268L626.083 785.268L626.084 789.268L650.565 789.268L650.564 785.268ZM613.842 785.268L589.36 785.268L589.361 789.268L613.843 789.268L613.842 785.268ZM577.12 785.268L552.638 785.268L552.639 789.268L577.12 789.268L577.12 785.268ZM540.397 785.268L515.916 785.268L515.917 789.268L540.398 789.268L540.397 785.268ZM503.675 785.268L479.194 785.268L479.194 789.268L503.676 789.268L503.675 785.268ZM466.953 785.268L442.471 785.268L442.472 789.268L466.954 789.268L466.953 785.268ZM430.23 785.268L405.749 785.268L405.75 789.268L430.231 789.268L430.23 785.268ZM393.508 785.268L369.027 785.268L369.027 789.268L393.509 789.268L393.508 785.268ZM356.786 785.268L332.304 785.268L332.305 789.268L356.787 789.268L356.786 785.268ZM320.064 785.268L295.582 785.268L295.583 789.268L320.064 789.268L320.064 785.268ZM283.341 785.268L258.86 785.268L258.861 789.268L283.342 789.268L283.341 785.268ZM246.619 785.268L222.137 785.268L222.138 789.268L246.62 789.268L246.619 785.268ZM209.897 785.268L185.415 785.268L185.416 789.268L209.897 789.268L209.897 785.268ZM173.174 785.268L160.934 785.268L160.934 789.268L173.175 789.268L173.174 785.268ZM160.934 785.268C156.628 785.268 152.373 785.491 148.182 785.926L148.596 789.905C152.65 789.483 156.767 789.268 160.934 789.268L160.934 785.268ZM135.565 787.909C127.123 789.695 119.004 792.353 111.305 795.786L112.935 799.439C120.379 796.12 128.231 793.549 136.394 791.823L135.565 787.909ZM99.9327 801.592C92.5326 805.873 85.6245 810.91 79.3138 816.595L81.9915 819.567C88.0967 814.067 94.779 809.195 101.936 805.054L99.9327 801.592ZM70.2859 825.623C64.6001 831.934 59.5636 838.842 55.2822 846.242L58.7446 848.246C62.8855 841.089 67.7573 834.406 73.2579 828.301L70.2859 825.623ZM49.4764 857.615C46.0439 865.313 43.3853 873.433 41.5997 881.875L45.5131 882.703C47.2398 874.54 49.8105 866.689 53.1299 859.245L49.4764 857.615ZM39.6166 894.491C39.1811 898.683 38.958 902.937 38.958 907.243L42.958 907.244C42.958 903.076 43.174 898.96 43.5951 894.905L39.6166 894.491ZM38.958 907.243L38.958 917.91L42.958 917.911L42.958 907.244L38.958 907.243ZM38.958 928.577L38.9579 949.91L42.9579 949.911L42.958 928.577L38.958 928.577ZM38.9579 960.577L38.9579 971.243L42.9579 971.244L42.9579 960.577L38.9579 960.577ZM38.9579 971.243C38.9579 975.55 39.1812 979.806 39.6169 983.999L43.5954 983.586C43.1739 979.53 42.9579 975.413 42.9579 971.244L38.9579 971.243ZM41.601 996.619C43.3875 1005.06 46.0474 1013.19 49.4817 1020.89L53.1348 1019.26C49.8139 1011.81 47.2419 1003.96 45.5144 995.792L41.601 996.619ZM55.2902 1032.26C59.5739 1039.67 64.6127 1046.58 70.3011 1052.89L73.2725 1050.22C67.7695 1044.11 62.8954 1037.42 58.7524 1030.26L55.2902 1032.26ZM79.333 1061.92C85.6466 1067.61 92.5576 1072.65 99.9608 1076.94L101.964 1073.47C94.8033 1069.33 88.118 1064.46 82.0101 1058.95L79.333 1061.92ZM111.338 1082.74C119.039 1086.18 127.162 1088.84 135.606 1090.62L136.433 1086.71C128.268 1084.98 120.414 1082.41 112.966 1079.09L111.338 1082.74ZM148.227 1092.61C152.42 1093.04 156.675 1093.27 160.982 1093.27L160.981 1089.27C156.813 1089.27 152.695 1089.05 148.639 1088.63L148.227 1092.61ZM160.982 1093.27L173.222 1093.27L173.221 1089.27L160.981 1089.27L160.982 1093.27ZM185.461 1093.27L209.94 1093.27L209.939 1089.27L185.46 1089.27L185.461 1093.27ZM222.179 1093.27L246.658 1093.27L246.657 1089.27L222.178 1089.27L222.179 1093.27ZM258.897 1093.27L283.375 1093.27L283.375 1089.27L258.896 1089.27L258.897 1093.27ZM295.615 1093.27L320.093 1093.27L320.093 1089.27L295.614 1089.27L295.615 1093.27ZM332.333 1093.27L356.811 1093.27L356.81 1089.27L332.332 1089.27L332.333 1093.27ZM369.051 1093.27L393.529 1093.27L393.528 1089.27L369.05 1089.27L369.051 1093.27ZM405.769 1093.27L430.247 1093.27L430.246 1089.27L405.768 1089.27L405.769 1093.27ZM442.487 1093.27L466.965 1093.27L466.964 1089.27L442.486 1089.27L442.487 1093.27ZM479.205 1093.27L503.683 1093.27L503.682 1089.27L479.204 1089.27L479.205 1093.27ZM515.922 1093.27L540.401 1093.27L540.4 1089.27L515.922 1089.27L515.922 1093.27ZM552.64 1093.27L577.119 1093.27L577.118 1089.27L552.64 1089.27L552.64 1093.27ZM589.358 1093.27L613.837 1093.27L613.836 1089.27L589.358 1089.27L589.358 1093.27ZM626.076 1093.27L650.555 1093.27L650.554 1089.27L626.076 1089.27L626.076 1093.27ZM662.794 1093.27L687.273 1093.27L687.272 1089.27L662.794 1089.27L662.794 1093.27ZM699.512 1093.27L723.991 1093.27L723.99 1089.27L699.512 1089.27L699.512 1093.27ZM736.23 1093.27L760.709 1093.27L760.708 1089.27L736.229 1089.27L736.23 1093.27ZM772.948 1093.27L797.427 1093.27L797.426 1089.27L772.947 1089.27L772.948 1093.27ZM809.666 1093.27L834.145 1093.27L834.144 1089.27L809.665 1089.27L809.666 1093.27ZM846.384 1093.27L870.863 1093.27L870.862 1089.27L846.383 1089.27L846.384 1093.27ZM883.102 1093.27L907.581 1093.27L907.58 1089.27L883.101 1089.27L883.102 1093.27ZM919.82 1093.27L944.299 1093.27L944.298 1089.27L919.819 1089.27L919.82 1093.27ZM956.538 1093.27L968.777 1093.27L968.776 1089.27L956.537 1089.27L956.538 1093.27ZM968.777 1093.27C972.945 1093.27 977.063 1093.48 981.118 1093.9L981.531 1089.93C977.338 1089.49 973.083 1089.27 968.776 1089.27L968.777 1093.27ZM993.323 1095.82C1001.49 1097.55 1009.34 1100.12 1016.79 1103.44L1018.42 1099.79C1010.72 1096.36 1002.59 1093.7 994.151 1091.91L993.323 1095.82ZM1027.79 1109.06C1034.95 1113.2 1041.64 1118.08 1047.74 1123.58L1050.42 1120.61C1044.11 1114.92 1037.2 1109.88 1029.79 1105.6L1027.79 1109.06ZM1056.48 1132.31C1061.98 1138.42 1066.86 1145.11 1071 1152.27L1074.46 1150.26C1070.18 1142.86 1065.14 1135.95 1059.45 1129.64L1056.48 1132.31ZM1076.62 1163.27C1079.94 1170.71 1082.51 1178.57 1084.24 1186.73L1088.16 1185.9C1086.37 1177.46 1083.71 1169.34 1080.27 1161.64L1076.62 1163.27ZM1086.16 1198.94C1086.58 1202.99 1086.8 1207.11 1086.8 1211.28L1090.8 1211.28C1090.8 1206.97 1090.58 1202.72 1090.14 1198.52L1086.16 1198.94ZM1086.8 1211.28L1086.8 1223.03L1090.8 1223.03L1090.8 1211.28L1086.8 1211.28ZM1086.8 1234.78L1086.81 1258.28L1090.81 1258.28L1090.8 1234.78L1086.8 1234.78ZM1086.81 1270.03L1086.81 1281.78L1090.81 1281.78L1090.81 1270.03L1086.81 1270.03ZM1086.81 1281.78C1086.81 1285.95 1086.59 1290.06 1086.17 1294.12L1090.15 1294.53C1090.59 1290.34 1090.81 1286.08 1090.81 1281.78L1086.81 1281.78ZM1084.26 1306.32C1082.53 1314.48 1079.96 1322.34 1076.64 1329.78L1080.29 1331.41C1083.73 1323.71 1086.38 1315.59 1088.17 1307.15L1084.26 1306.32ZM1071.03 1340.78C1066.88 1347.94 1062.01 1354.62 1056.51 1360.73L1059.48 1363.41C1065.17 1357.09 1070.21 1350.19 1074.49 1342.79L1071.03 1340.78ZM1047.78 1369.46C1041.67 1374.96 1034.99 1379.84 1027.83 1383.98L1029.84 1387.44C1037.24 1383.16 1044.15 1378.12 1050.46 1372.44L1047.78 1369.46ZM1016.83 1389.59C1009.39 1392.91 1001.54 1395.49 993.374 1397.21L994.203 1401.13C1002.64 1399.34 1010.77 1396.68 1018.46 1393.25L1016.83 1389.59ZM981.171 1399.13C977.116 1399.55 972.999 1399.77 968.832 1399.77L968.832 1403.77C973.138 1403.77 977.393 1403.54 981.585 1403.11L981.171 1399.13ZM968.832 1399.77L956.957 1399.77L956.958 1403.77L968.832 1403.77L968.832 1399.77ZM945.083 1399.77L921.335 1399.77L921.335 1403.77L945.084 1403.77L945.083 1399.77ZM909.46 1399.77L885.712 1399.77L885.713 1403.77L909.461 1403.77L909.46 1399.77ZM873.838 1399.77L850.089 1399.77L850.09 1403.77L873.839 1403.77L873.838 1399.77ZM838.215 1399.77L814.467 1399.77L814.467 1403.77L838.216 1403.77L838.215 1399.77ZM802.592 1399.77L778.844 1399.77L778.845 1403.77L802.593 1403.77L802.592 1399.77ZM766.97 1399.77L743.221 1399.77L743.222 1403.77L766.971 1403.77L766.97 1399.77ZM731.347 1399.77L707.599 1399.77L707.599 1403.77L731.348 1403.77L731.347 1399.77ZM695.724 1399.77L671.976 1399.77L671.977 1403.77L695.725 1403.77L695.724 1399.77ZM660.102 1399.77L636.353 1399.77L636.354 1403.77L660.102 1403.77L660.102 1399.77ZM624.479 1399.77L600.73 1399.77L600.731 1403.77L624.48 1403.77L624.479 1399.77ZM588.856 1399.77L565.108 1399.77L565.109 1403.77L588.857 1403.77L588.856 1399.77ZM553.234 1399.77L529.485 1399.77L529.486 1403.77L553.234 1403.77L553.234 1399.77ZM517.611 1399.77L493.862 1399.77L493.863 1403.77L517.612 1403.77L517.611 1399.77ZM481.988 1399.77L458.24 1399.77L458.241 1403.77L481.989 1403.77L481.988 1399.77ZM446.366 1399.77L422.617 1399.77L422.618 1403.77L446.366 1403.77L446.366 1399.77ZM410.743 1399.77L386.994 1399.77L386.995 1403.77L410.744 1403.77L410.743 1399.77ZM375.12 1399.77L351.372 1399.77L351.372 1403.77L375.121 1403.77L375.12 1399.77ZM339.497 1399.77L315.749 1399.77L315.75 1403.77L339.498 1403.77L339.497 1399.77ZM303.875 1399.77L280.126 1399.77L280.127 1403.77L303.876 1403.77L303.875 1399.77ZM268.252 1399.77L244.504 1399.77L244.504 1403.77L268.253 1403.77L268.252 1399.77ZM232.629 1399.77L208.881 1399.77L208.882 1403.77L232.63 1403.77L232.629 1399.77ZM197.007 1399.77L173.258 1399.77L173.259 1403.77L197.007 1403.77L197.007 1399.77ZM161.384 1399.77L149.51 1399.77L149.511 1403.77L161.385 1403.77L161.384 1399.77ZM149.51 1399.77C145.204 1399.77 140.95 1399.99 136.758 1400.43L137.172 1404.4C141.227 1403.98 145.343 1403.77 149.511 1403.77L149.51 1399.77ZM124.141 1402.41C115.7 1404.19 107.58 1406.85 99.8818 1410.29L101.511 1413.94C108.956 1410.62 116.807 1408.05 124.97 1406.32L124.141 1402.41ZM88.5091 1416.09C81.1089 1420.37 74.2009 1425.41 67.8901 1431.1L70.5679 1434.07C76.673 1428.57 83.3554 1423.7 90.5128 1419.55L88.5091 1416.09ZM58.8623 1440.12C53.1765 1446.43 48.14 1453.34 43.8585 1460.74L47.3209 1462.75C51.4619 1455.59 56.3336 1448.91 61.8342 1442.8L58.8623 1440.12ZM38.0528 1472.12C34.6202 1479.81 31.9616 1487.93 30.176 1496.37L34.0894 1497.2C35.8161 1489.04 38.3868 1481.19 41.7061 1473.74L38.0528 1472.12ZM28.1929 1508.99C27.7574 1513.18 27.5343 1517.44 27.5342 1521.74L31.5342 1521.74C31.5342 1517.58 31.7502 1513.46 32.1715 1509.41L28.1929 1508.99ZM27.5342 1521.74L27.5342 1534.22L31.5343 1534.22L31.5342 1521.74L27.5342 1521.74ZM27.5343 1546.7L27.5343 1571.66L31.5343 1571.66L31.5343 1546.7L27.5343 1546.7ZM27.5343 1584.14L27.5343 1609.1L31.5343 1609.11L31.5343 1584.14L27.5343 1584.14ZM27.5343 1621.58L27.5343 1646.54L31.5343 1646.55L31.5343 1621.59L27.5343 1621.58ZM27.5343 1659.03L27.5343 1683.99L31.5343 1683.99L31.5343 1659.03L27.5343 1659.03ZM27.5343 1696.47L27.5343 1721.43L31.5343 1721.43L31.5343 1696.47L27.5343 1696.47ZM27.5343 1733.91L27.5343 1758.87L31.5343 1758.87L31.5343 1733.91L27.5343 1733.91ZM27.5343 1771.35L27.5343 1796.31L31.5343 1796.31L31.5343 1771.35L27.5343 1771.35ZM27.5343 1808.79L27.5343 1821.27L31.5343 1821.27L31.5343 1808.79L27.5343 1808.79ZM40.8816 0.933586C29.0995 0.947839 19.5617 10.5106 19.5783 22.2927C19.5949 34.0748 29.1596 43.6145 40.9417 43.6002C52.7238 43.586 62.2616 34.0232 62.245 22.2411C62.2284 10.459 52.6637 0.919333 40.8816 0.933586ZM40.9459 361.462L44.9459 361.462L44.9459 361.462L40.9459 361.462ZM160.975 481.474L160.974 477.474L160.975 481.474ZM968.779 481.438L968.78 485.438L968.779 481.438ZM1088.81 601.475L1084.81 601.473L1088.81 601.475ZM1088.8 667.304L1092.8 667.306L1088.8 667.304ZM968.825 787.268L968.825 791.268L968.825 787.268ZM160.934 787.268L160.933 783.268L160.934 787.268ZM40.958 907.244L44.958 907.244L40.958 907.244ZM40.9579 971.244L36.9579 971.243L40.9579 971.244ZM160.982 1091.27L160.981 1087.27L160.982 1091.27ZM968.777 1091.27L968.776 1087.27L968.777 1091.27ZM1088.8 1211.28L1092.8 1211.28L1088.8 1211.28ZM1088.81 1281.78L1084.81 1281.78L1088.81 1281.78ZM968.832 1401.77L968.831 1397.77L968.832 1401.77ZM149.51 1401.77L149.51 1397.77L149.51 1401.77ZM29.5342 1521.74L25.5342 1521.74L29.5342 1521.74ZM26.7059 1824.1C28.2681 1825.66 30.8007 1825.66 32.3628 1824.1L57.8187 1798.65C59.3807 1797.08 59.3808 1794.55 57.8186 1792.99C56.2565 1791.43 53.7239 1791.43 52.1618 1792.99L29.5343 1815.61L6.90695 1792.98C5.34481 1791.42 2.81221 1791.42 1.25008 1792.98C-0.312054 1794.54 -0.312026 1797.07 1.25011 1798.63L26.7059 1824.1ZM36.9116 22.2665L36.9129 34.8293L44.9129 34.8301L44.9116 22.2673L36.9116 22.2665ZM36.9142 47.392L36.9168 72.5176L44.9168 72.5184L44.9142 47.3928L36.9142 47.392ZM36.918 85.0804L36.9205 110.206L44.9205 110.207L44.918 85.0811L36.918 85.0804ZM36.9218 122.769L36.9243 147.894L44.9243 147.895L44.9218 122.769L36.9218 122.769ZM36.9257 160.457L36.9281 185.583L44.9281 185.583L44.9255 160.458L36.9257 160.457ZM36.9294 198.145L36.932 223.271L44.9319 223.272L44.9294 198.146L36.9294 198.145ZM36.9332 235.834L36.9358 260.959L44.9358 260.96L44.9332 235.834L36.9332 235.834ZM36.937 273.522L36.9396 298.647L44.9396 298.648L44.937 273.523L36.937 273.522ZM36.9408 311.21L36.9433 336.336L44.9433 336.337L44.9408 311.211L36.9408 311.21ZM36.9447 348.899L36.9459 361.461L44.9459 361.462L44.9447 348.899L36.9447 348.899ZM36.9459 361.461C36.9463 365.837 37.1736 370.162 37.6169 374.423L45.5738 373.597C45.1592 369.61 44.9463 365.561 44.9459 361.462L36.9459 361.461ZM39.6346 387.25C41.4514 395.834 44.1559 404.09 47.6474 411.917L54.9534 408.66C51.6886 401.34 49.1599 393.621 47.4612 385.595L39.6346 387.25ZM53.5522 423.481C57.9066 431.005 63.028 438.028 68.8094 444.444L74.752 439.089C69.3413 433.085 64.5493 426.513 60.4761 419.475L53.5522 423.481ZM77.9889 453.622C84.4055 459.402 91.4295 464.523 98.9542 468.876L102.959 461.952C95.9203 457.88 89.348 453.089 83.3427 447.679L77.9889 453.622ZM110.518 474.779C118.347 478.27 126.603 480.973 135.187 482.789L136.841 474.962C128.815 473.264 121.095 470.737 113.775 467.473L110.518 474.779ZM148.014 484.804C152.276 485.247 156.6 485.474 160.976 485.474L160.974 477.474C156.875 477.474 152.826 477.261 148.839 476.847L148.014 484.804ZM160.976 485.474L173.216 485.473L173.214 477.473L160.974 477.474L160.976 485.474ZM185.455 485.472L209.934 485.471L209.932 477.471L185.453 477.472L185.455 485.472ZM222.173 485.471L246.652 485.47L246.65 477.47L222.171 477.471L222.173 485.471ZM258.892 485.469L283.371 485.468L283.369 477.468L258.89 477.469L258.892 485.469ZM295.61 485.468L320.089 485.466L320.087 477.466L295.608 477.468L295.61 485.468ZM332.328 485.466L356.807 485.465L356.805 477.465L332.326 477.466L332.328 485.466ZM369.047 485.464L393.526 485.463L393.524 477.463L369.045 477.464L369.047 485.464ZM405.765 485.463L430.244 485.462L430.242 477.462L405.763 477.463L405.765 485.463ZM442.483 485.461L466.962 485.46L466.96 477.46L442.481 477.461L442.483 485.461ZM479.202 485.459L503.681 485.458L503.679 477.458L479.2 477.459L479.202 485.459ZM515.92 485.458L540.399 485.457L540.397 477.457L515.918 477.458L515.92 485.458ZM552.638 485.456L577.117 485.455L577.115 477.455L552.636 477.456L552.638 485.456ZM589.357 485.454L613.836 485.453L613.834 477.453L589.355 477.454L589.357 485.454ZM626.075 485.453L650.554 485.452L650.552 477.452L626.073 477.453L626.075 485.453ZM662.793 485.451L687.272 485.45L687.27 477.45L662.791 477.451L662.793 485.451ZM699.512 485.45L723.991 485.449L723.989 477.449L699.51 477.45L699.512 485.45ZM736.23 485.448L760.709 485.447L760.707 477.447L736.228 477.448L736.23 485.448ZM772.948 485.446L797.427 485.445L797.425 477.445L772.946 477.446L772.948 485.446ZM809.667 485.445L834.146 485.444L834.144 477.444L809.665 477.445L809.667 485.445ZM846.385 485.443L870.864 485.442L870.862 477.442L846.383 477.443L846.385 485.443ZM883.103 485.441L907.582 485.44L907.58 477.44L883.101 477.441L883.103 485.441ZM919.822 485.44L944.301 485.439L944.299 477.439L919.82 477.44L919.822 485.44ZM956.54 485.438L968.78 485.438L968.778 477.438L956.538 477.438L956.54 485.438ZM968.78 485.438C972.88 485.437 976.929 485.65 980.916 486.064L981.741 478.107C977.479 477.664 973.154 477.437 968.778 477.438L968.78 485.438ZM992.916 487.95C1000.94 489.648 1008.66 492.176 1015.98 495.441L1019.24 488.135C1011.41 484.643 1003.16 481.939 994.57 480.123L992.916 487.95ZM1026.8 500.963C1033.84 505.037 1040.41 509.829 1046.42 515.24L1051.77 509.297C1045.36 503.515 1038.33 498.394 1030.81 494.039L1026.8 500.963ZM1055.01 523.832C1060.42 529.837 1065.21 536.411 1069.29 543.45L1076.21 539.445C1071.86 531.92 1066.74 524.895 1060.95 518.478L1055.01 523.832ZM1074.81 554.268C1078.07 561.589 1080.6 569.309 1082.3 577.337L1090.12 575.683C1088.31 567.098 1085.6 558.84 1082.11 551.011L1074.81 554.268ZM1084.18 589.337C1084.6 593.324 1084.81 597.373 1084.81 601.473L1092.81 601.476C1092.81 597.099 1092.58 592.774 1092.14 588.512L1084.18 589.337ZM1084.81 601.473L1084.81 612.445L1092.81 612.447L1092.81 601.476L1084.81 601.473ZM1084.81 623.417L1084.8 645.36L1092.8 645.362L1092.81 623.419L1084.81 623.417ZM1084.8 656.332L1084.8 667.303L1092.8 667.306L1092.8 656.334L1084.8 656.332ZM1084.8 667.303C1084.8 671.401 1084.59 675.448 1084.17 679.434L1092.13 680.263C1092.57 676.003 1092.8 671.68 1092.8 667.306L1084.8 667.303ZM1082.29 691.428C1080.59 699.451 1078.06 707.168 1074.8 714.484L1082.1 717.744C1085.59 709.919 1088.3 701.666 1090.11 693.086L1082.29 691.428ZM1069.28 725.295C1065.21 732.33 1060.42 738.898 1055.01 744.9L1060.95 750.256C1066.73 743.843 1071.85 736.823 1076.2 729.302L1069.28 725.295ZM1046.42 753.486C1040.42 758.893 1033.85 763.682 1026.82 767.752L1030.82 774.677C1038.35 770.326 1045.37 765.207 1051.78 759.43L1046.42 753.486ZM1016.01 773.27C1008.69 776.533 1000.97 779.059 992.949 780.756L994.606 788.583C1003.19 786.768 1011.44 784.066 1019.26 780.577L1016.01 773.27ZM980.955 782.641C976.969 783.055 972.922 783.268 968.824 783.268L968.825 791.268C973.2 791.268 977.523 791.041 981.783 790.598L980.955 782.641ZM968.824 783.268L956.583 783.268L956.585 791.268L968.825 791.268L968.824 783.268ZM944.342 783.268L919.861 783.268L919.862 791.268L944.344 791.268L944.342 783.268ZM907.62 783.268L883.138 783.268L883.14 791.268L907.622 791.268L907.62 783.268ZM870.898 783.268L846.416 783.268L846.418 791.268L870.899 791.268L870.898 783.268ZM834.175 783.268L809.694 783.268L809.695 791.268L834.177 791.268L834.175 783.268ZM797.453 783.268L772.972 783.268L772.973 791.268L797.455 791.268L797.453 783.268ZM760.731 783.268L736.249 783.268L736.251 791.268L760.732 791.268L760.731 783.268ZM724.008 783.268L699.527 783.268L699.529 791.268L724.01 791.268L724.008 783.268ZM687.286 783.268L662.805 783.268L662.806 791.268L687.288 791.268L687.286 783.268ZM650.564 783.268L626.082 783.268L626.084 791.268L650.565 791.268L650.564 783.268ZM613.842 783.268L589.36 783.268L589.362 791.268L613.843 791.268L613.842 783.268ZM577.119 783.268L552.638 783.268L552.639 791.268L577.121 791.268L577.119 783.268ZM540.397 783.268L515.915 783.268L515.917 791.268L540.399 791.268L540.397 783.268ZM503.675 783.268L479.193 783.268L479.195 791.268L503.676 791.268L503.675 783.268ZM466.952 783.268L442.471 783.268L442.472 791.268L466.954 791.268L466.952 783.268ZM430.23 783.268L405.749 783.268L405.75 791.268L430.232 791.268L430.23 783.268ZM393.508 783.268L369.026 783.268L369.028 791.268L393.509 791.268L393.508 783.268ZM356.785 783.268L332.304 783.268L332.306 791.268L356.787 791.268L356.785 783.268ZM320.063 783.268L295.582 783.268L295.583 791.268L320.065 791.268L320.063 783.268ZM283.341 783.268L258.859 783.268L258.861 791.268L283.342 791.268L283.341 783.268ZM246.619 783.268L222.137 783.268L222.139 791.268L246.62 791.268L246.619 783.268ZM209.896 783.268L185.415 783.268L185.416 791.268L209.898 791.268L209.896 783.268ZM173.174 783.268L160.933 783.268L160.935 791.268L173.176 791.268L173.174 783.268ZM160.933 783.268C156.558 783.268 152.235 783.494 147.975 783.937L148.803 791.894C152.789 791.48 156.836 791.268 160.935 791.268L160.933 783.268ZM135.151 785.953C126.57 787.768 118.316 790.47 110.491 793.959L113.75 801.266C121.067 798.003 128.784 795.477 136.808 793.779L135.151 785.953ZM98.9309 799.861C91.4093 804.212 84.3884 809.331 77.9748 815.109L83.3304 821.053C89.3328 815.646 95.9022 810.856 102.938 806.785L98.9309 799.861ZM68.7999 824.284C63.0214 830.698 57.9028 837.719 53.551 845.241L60.4758 849.248C64.5465 842.212 69.3359 835.642 74.7439 829.64L68.7999 824.284ZM47.6498 856.8C44.1606 864.626 41.4581 872.879 39.643 881.46L47.4698 883.118C49.167 875.094 51.6938 867.377 54.9564 860.059L47.6498 856.8ZM37.6273 894.284C37.1847 898.545 36.958 902.868 36.958 907.243L44.958 907.244C44.9579 903.146 45.1704 899.099 45.5844 895.112L37.6273 894.284ZM36.958 907.243L36.958 917.91L44.958 917.911L44.958 907.244L36.958 907.243ZM36.958 928.576L36.9579 949.91L44.9579 949.911L44.958 928.578L36.958 928.576ZM36.9579 960.576L36.9579 971.243L44.9579 971.244L44.9579 960.578L36.9579 960.576ZM36.9579 971.243C36.958 975.619 37.1848 979.944 37.6275 984.205L45.5848 983.38C45.1705 979.392 44.958 975.344 44.9579 971.244L36.9579 971.243ZM39.6443 997.033C41.4603 1005.62 44.1642 1013.87 47.6551 1021.7L54.9614 1018.44C51.6971 1011.12 49.169 1003.4 47.4711 995.378L39.6443 997.033ZM53.5592 1033.27C57.9131 1040.79 63.0342 1047.81 68.8153 1054.23L74.7583 1048.88C69.3479 1042.87 64.5562 1036.3 60.4834 1029.26L53.5592 1033.27ZM77.9944 1063.41C84.4108 1069.19 91.4348 1074.31 98.9594 1078.67L102.965 1071.74C95.9261 1067.67 89.3538 1062.88 83.3487 1057.47L77.9944 1063.41ZM110.524 1084.57C118.352 1088.06 126.609 1090.77 135.193 1092.58L136.847 1084.75C128.821 1083.06 121.101 1080.53 113.781 1077.26L110.524 1084.57ZM148.02 1094.6C152.282 1095.04 156.607 1095.27 160.983 1095.27L160.981 1087.27C156.882 1087.27 152.833 1087.06 148.846 1086.64L148.02 1094.6ZM160.983 1095.27L173.222 1095.27L173.22 1087.27L160.981 1087.27L160.983 1095.27ZM185.461 1095.27L209.94 1095.27L209.938 1087.27L185.46 1087.27L185.461 1095.27ZM222.179 1095.27L246.658 1095.27L246.656 1087.27L222.178 1087.27L222.179 1095.27ZM258.897 1095.27L283.376 1095.27L283.374 1087.27L258.896 1087.27L258.897 1095.27ZM295.615 1095.27L320.094 1095.27L320.092 1087.27L295.614 1087.27L295.615 1095.27ZM332.333 1095.27L356.812 1095.27L356.81 1087.27L332.332 1087.27L332.333 1095.27ZM369.051 1095.27L393.53 1095.27L393.528 1087.27L369.049 1087.27L369.051 1095.27ZM405.769 1095.27L430.248 1095.27L430.246 1087.27L405.767 1087.27L405.769 1095.27ZM442.487 1095.27L466.966 1095.27L466.964 1087.27L442.485 1087.27L442.487 1095.27ZM479.205 1095.27L503.684 1095.27L503.682 1087.27L479.203 1087.27L479.205 1095.27ZM515.923 1095.27L540.402 1095.27L540.4 1087.27L515.921 1087.27L515.923 1095.27ZM552.641 1095.27L577.119 1095.27L577.118 1087.27L552.639 1087.27L552.641 1095.27ZM589.359 1095.27L613.837 1095.27L613.836 1087.27L589.357 1087.27L589.359 1095.27ZM626.077 1095.27L650.555 1095.27L650.554 1087.27L626.075 1087.27L626.077 1095.27ZM662.795 1095.27L687.273 1095.27L687.272 1087.27L662.793 1087.27L662.795 1095.27ZM699.513 1095.27L723.991 1095.27L723.99 1087.27L699.511 1087.27L699.513 1095.27ZM736.231 1095.27L760.709 1095.27L760.708 1087.27L736.229 1087.27L736.231 1095.27ZM772.949 1095.27L797.427 1095.27L797.426 1087.27L772.947 1087.27L772.949 1095.27ZM809.667 1095.27L834.145 1095.27L834.144 1087.27L809.665 1087.27L809.667 1095.27ZM846.385 1095.27L870.863 1095.27L870.862 1087.27L846.383 1087.27L846.385 1095.27ZM883.103 1095.27L907.581 1095.27L907.58 1087.27L883.101 1087.27L883.103 1095.27ZM919.821 1095.27L944.299 1095.27L944.298 1087.27L919.819 1087.27L919.821 1095.27ZM956.538 1095.27L968.777 1095.27L968.776 1087.27L956.537 1087.27L956.538 1095.27ZM968.777 1095.27C972.877 1095.27 976.925 1095.48 980.912 1095.89L981.737 1087.94C977.476 1087.49 973.152 1087.27 968.776 1087.27L968.777 1095.27ZM992.91 1097.78C1000.94 1099.48 1008.66 1102.01 1015.97 1105.27L1019.23 1097.96C1011.4 1094.47 1003.15 1091.77 994.564 1089.95L992.91 1097.78ZM1026.79 1110.79C1033.83 1114.86 1040.4 1119.65 1046.41 1125.06L1051.76 1119.12C1045.34 1113.34 1038.32 1108.22 1030.8 1103.87L1026.79 1110.79ZM1055 1133.65C1060.41 1139.66 1065.2 1146.23 1069.27 1153.27L1076.19 1149.26C1071.84 1141.74 1066.72 1134.71 1060.94 1128.3L1055 1133.65ZM1074.79 1164.08C1078.06 1171.4 1080.59 1179.12 1082.29 1187.15L1090.11 1185.49C1088.3 1176.91 1085.59 1168.65 1082.1 1160.82L1074.79 1164.08ZM1084.17 1199.14C1084.59 1203.13 1084.8 1207.18 1084.8 1211.28L1092.8 1211.28C1092.8 1206.9 1092.57 1202.58 1092.13 1198.32L1084.17 1199.14ZM1084.8 1211.28L1084.8 1223.03L1092.8 1223.03L1092.8 1211.28L1084.8 1211.28ZM1084.8 1234.78L1084.81 1258.28L1092.81 1258.28L1092.8 1234.78L1084.8 1234.78ZM1084.81 1270.03L1084.81 1281.78L1092.81 1281.78L1092.81 1270.03L1084.81 1270.03ZM1084.81 1281.78C1084.81 1285.88 1084.6 1289.92 1084.18 1293.91L1092.14 1294.74C1092.58 1290.48 1092.81 1286.15 1092.81 1281.78L1084.81 1281.78ZM1082.3 1305.91C1080.6 1313.93 1078.08 1321.65 1074.81 1328.97L1082.12 1332.23C1085.61 1324.4 1088.31 1316.15 1090.13 1307.56L1082.3 1305.91ZM1069.29 1339.78C1065.22 1346.82 1060.43 1353.39 1055.03 1359.39L1060.97 1364.75C1066.75 1358.33 1071.87 1351.31 1076.22 1343.79L1069.29 1339.78ZM1046.44 1367.98C1040.44 1373.39 1033.87 1378.18 1026.83 1382.25L1030.84 1389.17C1038.36 1384.82 1045.38 1379.7 1051.8 1373.92L1046.44 1367.98ZM1016.02 1387.77C1008.7 1391.03 1000.98 1393.56 992.96 1395.26L994.617 1403.08C1003.2 1401.27 1011.45 1398.56 1019.28 1395.07L1016.02 1387.77ZM980.964 1397.14C976.978 1397.56 972.93 1397.77 968.831 1397.77L968.833 1405.77C973.208 1405.77 977.532 1405.54 981.792 1405.1L980.964 1397.14ZM968.831 1397.77L956.957 1397.77L956.959 1405.77L968.833 1405.77L968.831 1397.77ZM945.083 1397.77L921.334 1397.77L921.336 1405.77L945.084 1405.77L945.083 1397.77ZM909.46 1397.77L885.712 1397.77L885.713 1405.77L909.462 1405.77L909.46 1397.77ZM873.837 1397.77L850.089 1397.77L850.09 1405.77L873.839 1405.77L873.837 1397.77ZM838.215 1397.77L814.466 1397.77L814.468 1405.77L838.216 1405.77L838.215 1397.77ZM802.592 1397.77L778.844 1397.77L778.845 1405.77L802.594 1405.77L802.592 1397.77ZM766.969 1397.77L743.221 1397.77L743.222 1405.77L766.971 1405.77L766.969 1397.77ZM731.347 1397.77L707.598 1397.77L707.6 1405.77L731.348 1405.77L731.347 1397.77ZM695.724 1397.77L671.975 1397.77L671.977 1405.77L695.726 1405.77L695.724 1397.77ZM660.101 1397.77L636.353 1397.77L636.354 1405.77L660.103 1405.77L660.101 1397.77ZM624.479 1397.77L600.73 1397.77L600.732 1405.77L624.48 1405.77L624.479 1397.77ZM588.856 1397.77L565.107 1397.77L565.109 1405.77L588.857 1405.77L588.856 1397.77ZM553.233 1397.77L529.485 1397.77L529.486 1405.77L553.235 1405.77L553.233 1397.77ZM517.61 1397.77L493.862 1397.77L493.864 1405.77L517.612 1405.77L517.61 1397.77ZM481.988 1397.77L458.239 1397.77L458.241 1405.77L481.989 1405.77L481.988 1397.77ZM446.365 1397.77L422.617 1397.77L422.618 1405.77L446.367 1405.77L446.365 1397.77ZM410.742 1397.77L386.994 1397.77L386.996 1405.77L410.744 1405.77L410.742 1397.77ZM375.12 1397.77L351.371 1397.77L351.373 1405.77L375.121 1405.77L375.12 1397.77ZM339.497 1397.77L315.749 1397.77L315.75 1405.77L339.499 1405.77L339.497 1397.77ZM303.874 1397.77L280.126 1397.77L280.127 1405.77L303.876 1405.77L303.874 1397.77ZM268.252 1397.77L244.503 1397.77L244.505 1405.77L268.253 1405.77L268.252 1397.77ZM232.629 1397.77L208.881 1397.77L208.882 1405.77L232.631 1405.77L232.629 1397.77ZM197.006 1397.77L173.258 1397.77L173.259 1405.77L197.008 1405.77L197.006 1397.77ZM161.384 1397.77L149.51 1397.77L149.511 1405.77L161.385 1405.77L161.384 1397.77ZM149.51 1397.77C145.135 1397.77 140.811 1397.99 136.551 1398.44L137.379 1406.39C141.365 1405.98 145.413 1405.77 149.511 1405.77L149.51 1397.77ZM123.727 1400.45C115.146 1402.27 106.892 1404.97 99.067 1408.46L102.326 1415.77C109.643 1412.5 117.361 1409.98 125.384 1408.28L123.727 1400.45ZM87.5072 1414.36C79.9857 1418.71 72.9648 1423.83 66.5512 1429.61L71.9068 1435.55C77.9092 1430.15 84.4786 1425.36 91.5146 1421.29L87.5072 1414.36ZM57.3763 1438.78C51.5978 1445.2 46.479 1452.22 42.1273 1459.74L49.052 1463.75C53.123 1456.71 57.9123 1450.14 63.3202 1444.14L57.3763 1438.78ZM36.2261 1471.3C32.7369 1479.13 30.0344 1487.38 28.2192 1495.96L36.046 1497.62C37.7434 1489.59 40.2701 1481.88 43.5329 1474.56L36.2261 1471.3ZM26.2036 1508.78C25.761 1513.04 25.5343 1517.37 25.5342 1521.74L33.5343 1521.74C33.5342 1517.65 33.7467 1513.6 34.1607 1509.61L26.2036 1508.78ZM25.5342 1521.74L25.5342 1534.22L33.5343 1534.22L33.5343 1521.74L25.5342 1521.74ZM25.5342 1546.7L25.5343 1571.66L33.5343 1571.67L33.5343 1546.7L25.5342 1546.7ZM25.5343 1584.14L25.5343 1609.1L33.5343 1609.11L33.5343 1584.15L25.5343 1584.14ZM25.5343 1621.58L25.5343 1646.54L33.5343 1646.55L33.5343 1621.59L25.5343 1621.58ZM25.5343 1659.02L25.5343 1683.98L33.5343 1683.99L33.5343 1659.03L25.5343 1659.02ZM25.5343 1696.47L25.5343 1721.43L33.5343 1721.43L33.5343 1696.47L25.5343 1696.47ZM25.5343 1733.91L25.5343 1758.87L33.5343 1758.87L33.5343 1733.91L25.5343 1733.91ZM25.5343 1771.35L25.5343 1796.31L33.5343 1796.31L33.5343 1771.35L25.5343 1771.35ZM25.5343 1808.79L25.5343 1821.27L33.5344 1821.27L33.5343 1808.79L25.5343 1808.79Z" fill="#363C50" fill-opacity="0.15"/>
</svg>
