<svg width="25" height="24" viewBox="0 0 25 24" fill="none" xmlns="http://www.w3.org/2000/svg">
<g clip-path="url(#clip0_1_840)">
<path d="M5.48999 12.9981L17.35 12.9981L13.72 17.3581C13.5503 17.5623 13.4686 17.8256 13.493 18.09C13.5173 18.3544 13.6458 18.5983 13.85 18.7681C14.0542 18.9378 14.3175 19.0195 14.5819 18.9951C14.8463 18.9707 15.0903 18.8423 15.26 18.6381L20.26 12.6381C20.2936 12.5904 20.3237 12.5402 20.35 12.4881C20.35 12.4381 20.35 12.4081 20.42 12.3581C20.4653 12.2434 20.489 12.1214 20.49 11.9981C20.489 11.8748 20.4653 11.7527 20.42 11.6381C20.42 11.5881 20.42 11.5581 20.35 11.5081C20.3237 11.4559 20.2936 11.4058 20.26 11.3581L15.26 5.35808C15.166 5.24519 15.0482 5.15441 14.9151 5.09219C14.7821 5.02997 14.6369 4.99784 14.49 4.99808C14.2563 4.99762 14.0299 5.07899 13.85 5.22808C13.7487 5.31203 13.665 5.41513 13.6037 5.53147C13.5423 5.64782 13.5045 5.77513 13.4925 5.9061C13.4804 6.03708 13.4943 6.16915 13.5333 6.29476C13.5723 6.42036 13.6358 6.53703 13.72 6.63808L17.35 10.9981L5.48999 10.9981C5.22477 10.9981 4.97042 11.1034 4.78288 11.291C4.59535 11.4785 4.48999 11.7329 4.48999 11.9981C4.48999 12.2633 4.59535 12.5176 4.78288 12.7052C4.97042 12.8927 5.22477 12.9981 5.48999 12.9981Z" fill="#101213"/>
</g>
<defs>
<clipPath id="clip0_1_840">
<rect width="24" height="24" fill="white" transform="translate(0.48999)"/>
</clipPath>
</defs>
</svg>
