<svg width="560" height="1691" viewBox="0 0 560 1691" fill="none" xmlns="http://www.w3.org/2000/svg">
<path d="M28.962 5.83376C23.071 5.84143 18.3016 10.6233 18.3093 16.5143C18.317 22.4053 23.0989 27.1747 28.9899 27.1671C34.881 27.1594 39.6503 22.3775 39.6426 16.4865C39.6349 10.5955 34.8531 5.82608 28.962 5.83376ZM29.1974 355.912L27.1974 355.914L29.1974 355.912ZM149.075 475.834L149.077 473.834L149.075 475.834ZM434.793 476.126L434.791 478.126L434.793 476.126ZM554.671 596.058L556.671 596.057L554.671 596.058ZM554.697 642.141L552.697 642.142L554.697 642.141ZM434.575 762.208L434.577 760.208L434.575 762.208ZM149.631 761.917L149.629 763.917L149.631 761.917ZM29.5091 881.986L27.5091 881.987L29.5091 881.986ZM29.5337 924.697L27.5337 924.698L29.5337 924.697ZM149.412 1044.63L149.414 1042.63L149.412 1044.63ZM435.119 1044.92L435.117 1046.92L435.119 1044.92ZM554.997 1164.85L556.997 1164.85L554.997 1164.85ZM555.023 1210.94L553.023 1210.94L555.023 1210.94ZM434.902 1331L434.899 1333L434.902 1331ZM149.889 1330.71L149.887 1332.71L149.889 1330.71ZM29.767 1450.71L27.767 1450.71L29.767 1450.71ZM28.3528 1688.91C29.1338 1689.7 30.4002 1689.7 31.1812 1688.91L43.9091 1676.19C44.6902 1675.41 44.6902 1674.14 43.9092 1673.36C43.1281 1672.58 41.8617 1672.58 41.0807 1673.36L29.767 1684.67L18.4533 1673.36C17.6723 1672.58 16.4059 1672.58 15.6249 1673.36C14.8438 1674.14 14.8438 1675.41 15.6249 1676.19L28.3528 1688.91ZM26.976 16.5017L26.9842 29.0725L30.9842 29.0699L30.976 16.4991L26.976 16.5017ZM26.9924 41.6433L27.0088 66.7849L31.0088 66.7824L30.9924 41.6407L26.9924 41.6433ZM27.017 79.3557L27.0333 104.497L31.0333 104.495L31.017 79.3532L27.017 79.3557ZM27.0415 117.068L27.058 142.21L31.058 142.207L31.0415 117.066L27.0415 117.068ZM27.0662 154.781L27.0826 179.922L31.0826 179.92L31.0662 154.778L27.0662 154.781ZM27.0908 192.493L27.1072 217.635L31.1072 217.632L31.0908 192.49L27.0908 192.493ZM27.1154 230.205L27.1318 255.347L31.1318 255.344L31.1154 230.203L27.1154 230.205ZM27.14 267.918L27.1563 293.059L31.1563 293.057L31.14 267.915L27.14 267.918ZM27.1646 305.63L27.181 330.772L31.181 330.769L31.1646 305.628L27.1646 305.63ZM27.1892 343.343L27.1974 355.914L31.1974 355.911L31.1892 343.34L27.1892 343.343ZM27.1974 355.914C27.2002 360.215 27.4257 364.466 27.8631 368.653L31.8415 368.238C31.4183 364.187 31.2001 360.074 31.1974 355.911L27.1974 355.914ZM29.8508 381.257C31.6386 389.691 34.2976 397.802 37.729 405.493L41.3819 403.863C38.0637 396.426 35.4926 388.583 33.7638 380.428L29.8508 381.257ZM43.5316 416.855C47.8103 424.249 52.8423 431.151 58.5226 437.457L61.4947 434.78C55.9994 428.679 51.132 422.003 46.9937 414.852L43.5316 416.855ZM67.5413 446.479C73.8454 452.162 80.7458 457.196 88.1376 461.478L90.1424 458.016C82.9931 453.876 76.3182 449.006 70.2194 443.508L67.5413 446.479ZM99.4975 467.285C107.187 470.719 115.298 473.381 123.73 475.172L124.561 471.259C116.407 469.527 108.565 466.953 101.129 463.632L99.4975 467.285ZM136.334 477.164C140.522 477.603 144.772 477.83 149.073 477.834L149.077 473.834C144.914 473.83 140.802 473.61 136.751 473.186L136.334 477.164ZM149.073 477.834L160.978 477.847L160.982 473.847L149.077 473.834L149.073 477.834ZM172.883 477.859L196.693 477.883L196.697 473.883L172.887 473.859L172.883 477.859ZM208.598 477.895L232.408 477.92L232.412 473.92L208.602 473.895L208.598 477.895ZM244.313 477.932L268.122 477.956L268.126 473.956L244.317 473.932L244.313 477.932ZM280.027 477.968L303.837 477.993L303.841 473.993L280.031 473.968L280.027 477.968ZM315.742 478.005L339.552 478.029L339.556 474.029L315.746 474.005L315.742 478.005ZM351.457 478.041L375.266 478.066L375.27 474.065L351.461 474.041L351.457 478.041ZM387.171 478.078L410.981 478.102L410.985 474.102L387.175 474.078L387.171 478.078ZM422.886 478.114L434.791 478.126L434.795 474.126L422.89 474.114L422.886 478.114ZM434.791 478.126C438.955 478.131 443.067 478.35 447.118 478.775L447.535 474.797C443.347 474.358 439.097 474.131 434.795 474.126L434.791 478.126ZM459.308 480.702C467.463 482.434 475.306 485.008 482.742 488.33L484.373 484.677C476.683 481.243 468.572 478.58 460.139 476.789L459.308 480.702ZM493.729 493.946C500.878 498.087 507.553 502.958 513.652 508.456L516.33 505.485C510.026 499.802 503.126 494.766 495.733 490.485L493.729 493.946ZM522.377 517.184C527.872 523.286 532.74 529.963 536.878 537.115L540.34 535.111C536.061 527.717 531.029 520.814 525.349 514.508L522.377 517.184ZM542.489 548.104C545.807 555.542 548.378 563.386 550.106 571.541L554.019 570.712C552.232 562.278 549.573 554.166 546.142 546.474L542.489 548.104ZM552.028 583.732C552.451 587.783 552.668 591.896 552.671 596.059L556.671 596.057C556.668 591.755 556.443 587.505 556.006 583.317L552.028 583.732ZM552.671 596.059L552.68 611.42L556.68 611.418L556.671 596.057L552.671 596.059ZM552.688 626.781L552.697 642.142L556.697 642.139L556.688 626.779L552.688 626.781ZM552.697 642.142C552.7 646.314 552.485 650.435 552.066 654.495L556.044 654.906C556.478 650.71 556.7 646.45 556.697 642.139L552.697 642.142ZM550.15 666.712C548.424 674.886 545.852 682.747 542.53 690.2L546.184 691.829C549.619 684.121 552.279 675.991 554.064 667.539L550.15 666.712ZM536.909 701.213C532.763 708.379 527.885 715.069 522.377 721.181L525.348 723.859C531.042 717.541 536.085 710.625 540.372 703.216L536.909 701.213ZM513.63 729.923C507.516 735.429 500.824 740.304 493.655 744.447L495.657 747.91C503.068 743.627 509.987 738.587 516.307 732.896L513.63 729.923ZM482.641 750.063C475.186 753.382 467.323 755.951 459.149 757.673L459.973 761.587C468.427 759.806 476.558 757.149 484.267 753.717L482.641 750.063ZM446.931 759.582C442.871 760.001 438.75 760.213 434.577 760.208L434.573 764.208C438.884 764.213 443.144 763.994 447.341 763.561L446.931 759.582ZM434.577 760.208L422.705 760.196L422.701 764.196L434.573 764.208L434.577 760.208ZM410.832 760.184L387.087 760.16L387.083 764.16L410.828 764.184L410.832 760.184ZM375.214 760.148L351.469 760.124L351.465 764.124L375.21 764.148L375.214 760.148ZM339.596 760.111L315.851 760.087L315.846 764.087L339.592 764.111L339.596 760.111ZM303.978 760.075L280.232 760.051L280.228 764.051L303.974 764.075L303.978 760.075ZM268.36 760.039L244.614 760.014L244.61 764.014L268.356 764.039L268.36 760.039ZM232.742 760.002L208.996 759.978L208.992 763.978L232.738 764.002L232.742 760.002ZM197.124 759.966L173.378 759.942L173.374 763.942L197.12 763.966L197.124 759.966ZM161.506 759.93L149.633 759.917L149.629 763.917L161.502 763.93L161.506 759.93ZM149.633 759.917C145.322 759.913 141.063 760.132 136.866 760.564L137.275 764.543C141.335 764.125 145.457 763.913 149.629 763.917L149.633 759.917ZM124.233 762.539C115.779 764.32 107.648 766.976 99.9388 770.409L101.566 774.063C109.021 770.744 116.883 768.175 125.057 766.453L124.233 762.539ZM88.5492 776.216C81.1379 780.499 74.2194 785.539 67.8993 791.23L70.576 794.203C76.6902 788.697 83.3826 783.822 90.5507 779.679L88.5492 776.216ZM58.8583 800.267C53.1644 806.585 48.1212 813.501 43.8345 820.91L47.2969 822.913C51.4429 815.747 56.3212 809.057 61.8296 802.945L58.8583 800.267ZM38.0226 832.297C34.5869 840.005 31.927 848.135 30.1421 856.588L34.0558 857.414C35.7817 849.241 38.3538 841.379 41.6761 833.926L38.0226 832.297ZM28.1618 869.22C27.7278 873.417 27.5066 877.676 27.5091 881.987L31.5091 881.985C31.5067 877.812 31.7208 873.691 32.1406 869.631L28.1618 869.22ZM27.5091 881.987L27.5173 896.224L31.5173 896.222L31.5091 881.985L27.5091 881.987ZM27.5255 910.461L27.5337 924.698L31.5337 924.696L31.5255 910.459L27.5255 910.461ZM27.5337 924.698C27.5361 929 27.7613 933.251 28.1985 937.439L32.1769 937.023C31.754 932.972 31.5361 928.86 31.5337 924.696L27.5337 924.698ZM30.1853 950.043C31.9727 958.477 34.6313 966.589 38.0624 974.281L41.7154 972.651C38.3975 965.214 35.8268 957.37 34.0984 949.214L30.1853 950.043ZM43.8647 985.644C48.1432 993.038 53.1752 999.941 58.8555 1006.25L61.8277 1003.57C56.3325 997.469 51.465 990.792 47.3269 983.64L43.8647 985.644ZM67.8743 1015.27C74.1785 1020.95 81.0791 1025.99 88.4712 1030.27L90.4761 1026.81C83.3265 1022.67 76.6514 1017.8 70.5525 1012.3L67.8743 1015.27ZM99.8315 1036.08C107.522 1039.51 115.632 1042.17 124.065 1043.97L124.896 1040.05C116.742 1038.32 108.899 1035.75 101.463 1032.43L99.8315 1036.08ZM136.669 1045.96C140.857 1046.4 145.108 1046.62 149.41 1046.63L149.414 1042.63C145.25 1042.62 141.137 1042.4 137.086 1041.98L136.669 1045.96ZM149.41 1046.63L161.314 1046.64L161.318 1042.64L149.414 1042.63L149.41 1046.63ZM173.219 1046.65L197.028 1046.68L197.032 1042.68L173.223 1042.65L173.219 1046.65ZM208.932 1046.69L232.741 1046.71L232.745 1042.71L208.936 1042.69L208.932 1046.69ZM244.645 1046.73L268.454 1046.75L268.458 1042.75L244.649 1042.73L244.645 1046.73ZM280.359 1046.76L304.168 1046.79L304.172 1042.79L280.363 1042.76L280.359 1046.76ZM316.072 1046.8L339.881 1046.82L339.885 1042.82L316.076 1042.8L316.072 1046.8ZM351.786 1046.84L375.595 1046.86L375.599 1042.86L351.79 1042.84L351.786 1046.84ZM387.499 1046.87L411.308 1046.9L411.312 1042.9L387.503 1042.87L387.499 1046.87ZM423.212 1046.91L435.117 1046.92L435.121 1042.92L423.217 1042.91L423.212 1046.91ZM435.117 1046.92C439.281 1046.92 443.393 1047.14 447.444 1047.57L447.861 1043.59C443.673 1043.15 439.423 1042.92 435.121 1042.92L435.117 1046.92ZM459.634 1049.5C467.789 1051.23 475.632 1053.8 483.068 1057.12L484.699 1053.47C477.009 1050.04 468.898 1047.37 460.465 1045.58L459.634 1049.5ZM494.055 1062.74C501.204 1066.88 507.879 1071.75 513.978 1077.25L516.656 1074.28C510.352 1068.6 503.452 1063.56 496.059 1059.28L494.055 1062.74ZM522.703 1085.98C528.198 1092.08 533.066 1098.76 537.204 1105.91L540.666 1103.91C536.387 1096.51 531.355 1089.61 525.675 1083.3L522.703 1085.98ZM542.815 1116.9C546.133 1124.34 548.704 1132.18 550.432 1140.33L554.345 1139.51C552.558 1131.07 549.899 1122.96 546.468 1115.27L542.815 1116.9ZM552.354 1152.53C552.777 1156.58 552.995 1160.69 552.997 1164.85L556.997 1164.85C556.994 1160.55 556.769 1156.3 556.332 1152.11L552.354 1152.53ZM552.997 1164.85L553.006 1180.21L557.006 1180.21L556.997 1164.85L552.997 1164.85ZM553.015 1195.58L553.023 1210.94L557.023 1210.93L557.015 1195.57L553.015 1195.58ZM553.023 1210.94C553.026 1215.11 552.812 1219.23 552.392 1223.29L556.371 1223.7C556.805 1219.5 557.026 1215.25 557.023 1210.93L553.023 1210.94ZM550.477 1235.51C548.751 1243.68 546.179 1251.54 542.856 1259L546.51 1260.62C549.946 1252.92 552.606 1244.79 554.39 1236.33L550.477 1235.51ZM537.236 1270.01C533.09 1277.17 528.211 1283.86 522.703 1289.98L525.674 1292.65C531.368 1286.34 536.411 1279.42 540.698 1272.01L537.236 1270.01ZM513.957 1298.72C507.842 1304.22 501.15 1309.1 493.982 1313.24L495.983 1316.71C503.395 1312.42 510.313 1307.38 516.633 1301.69L513.957 1298.72ZM482.967 1318.86C475.512 1322.18 467.649 1324.75 459.475 1326.47L460.3 1330.38C468.753 1328.6 476.884 1325.94 484.594 1322.51L482.967 1318.86ZM447.257 1328.38C443.197 1328.8 439.076 1329.01 434.904 1329L434.899 1333C439.21 1333.01 443.47 1332.79 447.667 1332.36L447.257 1328.38ZM434.904 1329L423.028 1328.99L423.024 1332.99L434.899 1333L434.904 1329ZM411.152 1328.98L387.401 1328.96L387.397 1332.96L411.148 1332.98L411.152 1328.98ZM375.526 1328.94L351.775 1328.92L351.771 1332.92L375.522 1332.94L375.526 1328.94ZM339.899 1328.91L316.148 1328.88L316.144 1332.88L339.895 1332.91L339.899 1328.91ZM304.273 1328.87L280.522 1328.85L280.518 1332.85L304.269 1332.87L304.273 1328.87ZM268.646 1328.83L244.895 1328.81L244.891 1332.81L268.642 1332.83L268.646 1328.83ZM233.02 1328.8L209.269 1328.77L209.264 1332.77L233.016 1332.8L233.02 1328.8ZM197.393 1328.76L173.642 1328.74L173.638 1332.74L197.389 1332.76L197.393 1328.76ZM161.766 1328.73L149.891 1328.71L149.887 1332.71L161.762 1332.73L161.766 1328.73ZM149.891 1328.71C145.582 1328.71 141.324 1328.93 137.128 1329.36L137.538 1333.34C141.596 1332.92 145.716 1332.71 149.887 1332.71L149.891 1328.71ZM124.5 1331.33C116.049 1333.11 107.921 1335.77 100.214 1339.2L101.84 1342.85C109.293 1339.53 117.153 1336.97 125.324 1335.25L124.5 1331.33ZM88.8273 1345C81.418 1349.28 74.5009 1354.32 68.1815 1360L70.8574 1362.98C76.9708 1357.47 83.6619 1352.6 90.8282 1348.46L88.8273 1345ZM59.1412 1369.03C53.4475 1375.35 48.4038 1382.26 44.1159 1389.67L47.5774 1391.67C51.7246 1384.51 56.6034 1377.82 62.1117 1371.71L59.1412 1369.03ZM38.3015 1401.05C34.8638 1408.75 32.2011 1416.88 30.4127 1425.32L34.326 1426.15C36.0554 1417.98 38.63 1410.13 41.9543 1402.68L38.3015 1401.05ZM28.4266 1437.95C27.9905 1442.15 27.767 1446.4 27.767 1450.71L31.767 1450.71C31.767 1446.54 31.9833 1442.42 32.4052 1438.36L28.4266 1437.95ZM27.767 1450.71L27.767 1461.99L31.767 1461.99L31.767 1450.71L27.767 1450.71ZM27.767 1473.26L27.767 1495.81L31.767 1495.81L31.767 1473.26L27.767 1473.26ZM27.767 1507.09L27.767 1529.64L31.767 1529.64L31.767 1507.09L27.767 1507.09ZM27.767 1540.92L27.767 1563.47L31.767 1563.47L31.767 1540.92L27.767 1540.92ZM27.767 1574.74L27.767 1597.3L31.767 1597.3L31.767 1574.74L27.767 1574.74ZM27.767 1608.57L27.767 1631.12L31.767 1631.12L31.767 1608.57L27.767 1608.57ZM27.767 1642.4L27.767 1664.95L31.767 1664.95L31.767 1642.4L27.767 1642.4ZM27.767 1676.22L27.767 1687.5L31.767 1687.5L31.767 1676.22L27.767 1676.22ZM28.9481 -4.8329C17.166 -4.81755 7.62725 4.74614 7.64267 16.5282C7.65808 28.3103 17.2218 37.8491 29.0039 37.8337C40.786 37.8184 50.3247 28.2547 50.3093 16.4726C50.2939 4.69055 40.7302 -4.84825 28.9481 -4.8329ZM29.1974 355.912L25.1974 355.915L29.1974 355.912ZM149.075 475.834L149.079 471.834L149.075 475.834ZM434.793 476.126L434.789 480.126L434.793 476.126ZM554.671 596.058L558.671 596.056L554.671 596.058ZM554.697 642.141L550.697 642.143L554.697 642.141ZM434.575 762.208L434.579 758.208L434.575 762.208ZM149.631 761.917L149.627 765.917L149.631 761.917ZM29.5091 881.986L25.5091 881.988L29.5091 881.986ZM29.5337 924.697L25.5337 924.699L29.5337 924.697ZM149.412 1044.63L149.416 1040.63L149.412 1044.63ZM435.119 1044.92L435.115 1048.92L435.115 1048.92L435.119 1044.92ZM554.997 1164.85L558.997 1164.85L554.997 1164.85ZM555.023 1210.94L551.023 1210.94L555.023 1210.94ZM434.902 1331L434.897 1335L434.897 1335L434.902 1331ZM149.889 1330.71L149.885 1334.71L149.889 1330.71ZM29.767 1450.71L25.767 1450.71L29.767 1450.71ZM26.9385 1690.33C28.5006 1691.89 31.0333 1691.89 32.5954 1690.33L58.0513 1664.87C59.6134 1663.31 59.6134 1660.78 58.0513 1659.22C56.4892 1657.65 53.9565 1657.65 52.3944 1659.22L29.767 1681.84L7.13959 1659.22C5.57748 1657.65 3.04483 1657.65 1.48272 1659.22C-0.079384 1660.78 -0.0793667 1663.31 1.48274 1664.87L26.9385 1690.33ZM24.976 16.503L24.9842 29.0738L32.9842 29.0686L32.976 16.4978L24.976 16.503ZM24.9924 41.6446L25.0088 66.7862L33.0088 66.7811L32.9924 41.6394L24.9924 41.6446ZM25.017 79.357L25.0333 104.499L33.0333 104.493L33.017 79.3519L25.017 79.357ZM25.0415 117.069L25.058 142.211L33.058 142.206L33.0415 117.064L25.0415 117.069ZM25.0662 154.782L25.0826 179.923L33.0826 179.918L33.0662 154.777L25.0662 154.782ZM25.0908 192.494L25.1072 217.636L33.1072 217.631L33.0908 192.489L25.0908 192.494ZM25.1154 230.207L25.1318 255.348L33.1318 255.343L33.1154 230.202L25.1154 230.207ZM25.14 267.919L25.1563 293.061L33.1563 293.056L33.14 267.914L25.14 267.919ZM25.1646 305.632L25.181 330.773L33.181 330.768L33.1646 305.626L25.1646 305.632ZM25.1892 343.344L25.1974 355.915L33.1974 355.91L33.1892 343.339L25.1892 343.344ZM25.1974 355.915C25.2002 360.286 25.4294 364.605 25.8739 368.861L33.8307 368.03C33.4147 364.048 33.2 360.004 33.1974 355.91L25.1974 355.915ZM27.8943 381.672C29.7116 390.245 32.4145 398.49 35.9025 406.308L43.2083 403.049C39.9467 395.738 37.4196 388.029 35.7204 380.013L27.8943 381.672ZM41.8006 417.857C46.1494 425.372 51.2637 432.387 57.0366 438.796L62.9807 433.442C57.578 427.444 52.7928 420.88 48.7247 413.85L41.8006 417.857ZM66.2022 447.965C72.609 453.74 79.6222 458.857 87.1352 463.208L91.1448 456.286C84.1168 452.215 77.5546 447.427 71.5585 442.023L66.2022 447.965ZM98.682 469.111C106.499 472.602 114.743 475.308 123.315 477.128L124.977 469.303C116.962 467.6 109.253 465.07 101.944 461.806L98.682 469.111ZM136.125 479.153C140.381 479.599 144.701 479.83 149.071 479.834L149.079 471.834C144.985 471.83 140.942 471.614 136.959 471.197L136.125 479.153ZM149.071 479.834L160.976 479.847L160.984 471.847L149.079 471.834L149.071 479.834ZM172.881 479.859L196.691 479.883L196.699 471.883L172.889 471.859L172.881 479.859ZM208.596 479.895L232.406 479.92L232.414 471.92L208.604 471.895L208.596 479.895ZM244.31 479.932L268.12 479.956L268.128 471.956L244.319 471.932L244.31 479.932ZM280.025 479.968L303.835 479.993L303.843 471.993L280.033 471.968L280.025 479.968ZM315.74 480.005L339.55 480.029L339.558 472.029L315.748 472.005L315.74 480.005ZM351.455 480.041L375.264 480.066L375.272 472.066L351.463 472.041L351.455 480.041ZM387.169 480.078L410.979 480.102L410.987 472.102L387.177 472.078L387.169 480.078ZM422.884 480.114L434.789 480.126L434.797 472.126L422.892 472.114L422.884 480.114ZM434.789 480.126C438.883 480.131 442.927 480.347 446.91 480.764L447.744 472.808C443.487 472.362 439.168 472.131 434.797 472.126L434.789 480.126ZM458.893 482.658C466.908 484.361 474.617 486.891 481.926 490.156L485.189 482.851C477.372 479.36 469.127 476.654 460.555 474.833L458.893 482.658ZM492.726 495.677C499.754 499.748 506.317 504.536 512.313 509.941L517.67 503.999C511.263 498.223 504.249 493.106 496.736 488.754L492.726 495.677ZM520.891 518.523C526.294 524.522 531.079 531.086 535.147 538.116L542.071 534.11C537.722 526.594 532.608 519.579 526.835 513.169L520.891 518.523ZM540.663 548.918C543.924 556.229 546.451 563.94 548.15 571.956L555.976 570.297C554.159 561.724 551.456 553.478 547.969 545.659L540.663 548.918ZM550.038 583.939C550.454 587.922 550.668 591.966 550.671 596.061L558.671 596.056C558.668 591.685 558.44 587.366 557.995 583.109L550.038 583.939ZM550.671 596.061L550.68 611.421L558.68 611.417L558.671 596.056L550.671 596.061ZM550.688 626.782L550.697 642.143L558.697 642.138L558.688 626.778L550.688 626.782ZM550.697 642.143C550.7 646.246 550.489 650.298 550.076 654.289L558.034 655.112C558.475 650.847 558.7 646.518 558.697 642.138L550.697 642.143ZM548.194 666.299C546.497 674.333 543.969 682.06 540.703 689.386L548.01 692.643C551.503 684.808 554.207 676.544 556.021 667.952L548.194 666.299ZM535.178 700.211C531.102 707.256 526.307 713.833 520.891 719.842L526.834 725.198C532.62 718.777 537.746 711.748 542.103 704.217L535.178 700.211ZM512.292 728.437C506.281 733.85 499.701 738.643 492.655 742.716L496.658 749.642C504.191 745.288 511.222 740.166 517.645 734.382L512.292 728.437ZM481.827 748.236C474.499 751.498 466.771 754.023 458.736 755.716L460.386 763.544C468.979 761.733 477.244 759.033 485.081 755.544L481.827 748.236ZM446.726 757.593C442.735 758.004 438.683 758.213 434.579 758.208L434.571 766.208C438.951 766.213 443.28 765.99 447.545 765.551L446.726 757.593ZM434.579 758.208L422.707 758.196L422.699 766.196L434.571 766.208L434.579 758.208ZM410.834 758.184L387.089 758.16L387.08 766.16L410.826 766.184L410.834 758.184ZM375.216 758.148L351.471 758.124L351.462 766.124L375.208 766.148L375.216 758.148ZM339.598 758.111L315.853 758.087L315.844 766.087L339.59 766.111L339.598 758.111ZM303.98 758.075L280.235 758.051L280.226 766.051L303.972 766.075L303.98 758.075ZM268.362 758.039L244.617 758.014L244.608 766.014L268.354 766.039L268.362 758.039ZM232.744 758.002L208.998 757.978L208.99 765.978L232.736 766.002L232.744 758.002ZM197.126 757.966L173.38 757.942L173.372 765.942L197.118 765.966L197.126 757.966ZM161.508 757.93L149.635 757.917L149.627 765.917L161.5 765.93L161.508 757.93ZM149.635 757.917C145.255 757.913 140.926 758.136 136.661 758.575L137.48 766.533C141.471 766.122 145.524 765.913 149.627 765.917L149.635 757.917ZM123.82 760.582C115.227 762.393 106.962 765.093 99.1253 768.582L102.379 775.89C109.707 772.628 117.435 770.103 125.47 768.41L123.82 760.582ZM87.5484 774.484C80.0155 778.838 72.9841 783.96 66.561 789.744L71.9143 795.689C77.9256 790.276 84.505 785.483 91.5515 781.41L87.5484 774.484ZM57.3727 798.928C51.586 805.349 46.4603 812.378 42.1034 819.909L49.028 823.915C53.1037 816.87 57.8995 810.293 63.3152 804.284L57.3727 798.928ZM36.1958 831.483C32.7035 839.318 29.9996 847.582 28.1852 856.174L36.0127 857.827C37.7091 849.793 40.2372 842.066 43.5028 834.74L36.1958 831.483ZM26.1725 869.014C25.7313 873.279 25.5066 877.608 25.5091 881.988L33.5091 881.983C33.5067 877.88 33.7173 873.828 34.13 869.837L26.1725 869.014ZM25.5091 881.988L25.5173 896.225L33.5173 896.22L33.5091 881.983L25.5091 881.988ZM25.5255 910.462L25.5337 924.699L33.5337 924.695L33.5255 910.458L25.5255 910.462ZM25.5337 924.699C25.5362 929.07 25.765 933.39 26.2093 937.646L34.166 936.816C33.7504 932.833 33.536 928.789 33.5337 924.695L25.5337 924.699ZM28.2288 950.458C30.0457 959.031 32.7482 967.277 36.2359 975.096L43.5419 971.837C40.2806 964.526 37.7538 956.816 36.055 948.8L28.2288 950.458ZM42.1337 986.646C46.4823 994.161 51.5966 1001.18 57.3694 1007.59L63.3138 1002.23C57.9111 996.233 53.1259 989.669 49.058 982.639L42.1337 986.646ZM66.5351 1016.76C72.9421 1022.53 79.9554 1027.65 87.4687 1032L91.4785 1025.08C84.4502 1021.01 77.8878 1016.22 71.8917 1010.81L66.5351 1016.76ZM99.0159 1037.9C106.833 1041.39 115.078 1044.1 123.65 1045.92L125.312 1038.1C117.297 1036.39 109.588 1033.86 102.278 1030.6L99.0159 1037.9ZM136.461 1047.95C140.717 1048.39 145.037 1048.62 149.408 1048.63L149.416 1040.63C145.321 1040.62 141.277 1040.41 137.295 1039.99L136.461 1047.95ZM149.408 1048.63L161.312 1048.64L161.32 1040.64L149.416 1040.63L149.408 1048.63ZM173.217 1048.65L197.025 1048.68L197.034 1040.68L173.225 1040.65L173.217 1048.65ZM208.93 1048.69L232.739 1048.71L232.747 1040.71L208.938 1040.69L208.93 1048.69ZM244.643 1048.73L268.452 1048.75L268.46 1040.75L244.652 1040.73L244.643 1048.73ZM280.357 1048.76L304.166 1048.79L304.174 1040.79L280.365 1040.76L280.357 1048.76ZM316.07 1048.8L339.879 1048.82L339.887 1040.82L316.078 1040.8L316.07 1048.8ZM351.784 1048.84L375.593 1048.86L375.601 1040.86L351.792 1040.84L351.784 1048.84ZM387.497 1048.87L411.306 1048.9L411.314 1040.9L387.505 1040.87L387.497 1048.87ZM423.21 1048.91L435.115 1048.92L435.123 1040.92L423.219 1040.91L423.21 1048.91ZM435.115 1048.92C439.21 1048.92 443.253 1049.14 447.236 1049.56L448.07 1041.6C443.813 1041.16 439.494 1040.92 435.123 1040.92L435.115 1048.92ZM459.219 1051.45C467.234 1053.15 474.943 1055.69 482.252 1058.95L485.515 1051.65C477.698 1048.15 469.453 1045.45 460.881 1043.63L459.219 1051.45ZM493.052 1064.47C500.08 1068.54 506.643 1073.33 512.639 1078.74L517.995 1072.79C511.589 1067.02 504.575 1061.9 497.062 1057.55L493.052 1064.47ZM521.217 1087.32C526.62 1093.32 531.405 1099.88 535.473 1106.91L542.397 1102.9C538.048 1095.39 532.934 1088.37 527.161 1081.96L521.217 1087.32ZM540.989 1117.71C544.25 1125.02 546.777 1132.73 548.476 1140.75L556.302 1139.09C554.485 1130.52 551.782 1122.27 548.295 1114.45L540.989 1117.71ZM550.365 1152.73C550.78 1156.72 550.995 1160.76 550.997 1164.85L558.997 1164.85C558.994 1160.48 558.766 1156.16 558.321 1151.9L550.365 1152.73ZM550.997 1164.85L551.006 1180.22L559.006 1180.21L558.997 1164.85L550.997 1164.85ZM551.015 1195.58L551.023 1210.94L559.023 1210.93L559.015 1195.57L551.015 1195.58ZM551.023 1210.94C551.026 1215.04 550.815 1219.09 550.402 1223.08L558.36 1223.91C558.801 1219.64 559.026 1215.31 559.023 1210.93L551.023 1210.94ZM548.52 1235.09C546.823 1243.13 544.295 1250.86 541.03 1258.18L548.337 1261.44C551.829 1253.6 554.533 1245.34 556.347 1236.75L548.52 1235.09ZM535.504 1269.01C531.429 1276.05 526.633 1282.63 521.217 1288.64L527.16 1293.99C532.947 1287.57 538.072 1280.54 542.429 1273.01L535.504 1269.01ZM512.618 1297.23C506.607 1302.65 500.028 1307.44 492.981 1311.51L496.984 1318.44C504.517 1314.08 511.548 1308.96 517.972 1303.18L512.618 1297.23ZM482.153 1317.03C474.826 1320.29 467.097 1322.82 459.063 1324.51L460.712 1332.34C469.305 1330.53 477.571 1327.83 485.407 1324.34L482.153 1317.03ZM447.052 1326.39C443.061 1326.8 439.009 1327.01 434.906 1327L434.897 1335C439.278 1335.01 443.606 1334.79 447.872 1334.35L447.052 1326.39ZM434.906 1327L423.03 1326.99L423.022 1334.99L434.897 1335L434.906 1327ZM411.155 1326.98L387.403 1326.96L387.395 1334.96L411.146 1334.98L411.155 1326.98ZM375.528 1326.94L351.777 1326.92L351.769 1334.92L375.52 1334.94L375.528 1326.94ZM339.901 1326.91L316.15 1326.88L316.142 1334.88L339.893 1334.91L339.901 1326.91ZM304.275 1326.87L280.524 1326.85L280.516 1334.85L304.267 1334.87L304.275 1326.87ZM268.648 1326.83L244.897 1326.81L244.889 1334.81L268.64 1334.83L268.648 1326.83ZM233.022 1326.8L209.271 1326.77L209.262 1334.77L233.013 1334.8L233.022 1326.8ZM197.395 1326.76L173.644 1326.74L173.636 1334.74L197.387 1334.76L197.395 1326.76ZM161.768 1326.73L149.893 1326.71L149.885 1334.71L161.76 1334.73L161.768 1326.73ZM149.893 1326.71C145.514 1326.71 141.188 1326.93 136.923 1327.37L137.743 1335.33C141.732 1334.92 145.783 1334.71 149.885 1334.71L149.893 1326.71ZM124.088 1329.38C115.498 1331.18 107.235 1333.88 99.4006 1337.37L102.653 1344.68C109.979 1341.42 117.705 1338.9 125.736 1337.2L124.088 1329.38ZM87.8269 1343.27C80.296 1347.62 73.2659 1352.74 66.8436 1358.52L72.1953 1364.46C78.2059 1359.05 84.7839 1354.26 91.8287 1350.19L87.8269 1343.27ZM57.656 1367.7C51.8695 1374.11 46.7433 1381.14 42.3851 1388.66L49.3082 1392.67C53.3851 1385.63 58.1814 1379.06 63.5969 1373.05L57.656 1367.7ZM36.4751 1400.23C32.9807 1408.06 30.274 1416.32 28.4561 1424.91L36.2827 1426.57C37.9825 1418.54 40.5132 1410.81 43.7807 1403.49L36.4751 1400.23ZM26.4373 1437.74C25.9941 1442.01 25.767 1446.33 25.767 1450.71L33.767 1450.71C33.767 1446.61 33.9797 1442.56 34.3944 1438.57L26.4373 1437.74ZM25.767 1450.71L25.767 1461.99L33.767 1461.99L33.767 1450.71L25.767 1450.71ZM25.767 1473.26L25.767 1495.81L33.767 1495.81L33.767 1473.26L25.767 1473.26ZM25.767 1507.09L25.767 1529.64L33.767 1529.64L33.767 1507.09L25.767 1507.09ZM25.767 1540.92L25.767 1563.47L33.767 1563.47L33.767 1540.92L25.767 1540.92ZM25.767 1574.74L25.767 1597.3L33.767 1597.3L33.767 1574.74L25.767 1574.74ZM25.767 1608.57L25.767 1631.12L33.767 1631.12L33.767 1608.57L25.767 1608.57ZM25.767 1642.4L25.767 1664.95L33.767 1664.95L33.767 1642.4L25.767 1642.4ZM25.767 1676.22L25.767 1687.5L33.767 1687.5L33.767 1676.22L25.767 1676.22Z" fill="#363C50" fill-opacity="0.15"/>
</svg>
