<svg width="129" height="1079" viewBox="0 0 129 1079" fill="none" xmlns="http://www.w3.org/2000/svg">
<path d="M125.94 252.184L124.94 252.19L125.94 252.184ZM125.962 414.392L124.962 414.397L125.962 414.392ZM2.11153 537.73L1.11154 537.735L2.11153 537.73ZM2.13306 696.567L3.13305 696.561L2.13306 696.567ZM126.017 820.978L127.017 820.972L126.017 820.978ZM126.039 983.183L125.039 983.189L126.039 983.183ZM64.1094 1044.86L64.0999 1045.86L64.1094 1044.86ZM35.5901 1044.73L35.5805 1045.73L35.5901 1044.73ZM2.02895 -39.8945L1.03021 -39.9392C1.02938 -39.9225 1.02896 -39.9058 1.02897 -39.8891L2.02895 -39.8945ZM2.05481 127.773L3.0548 127.768L2.05481 127.773ZM64.0366 476.061L64.027 477.061L64.0366 476.061ZM63.9973 189.978L63.9877 190.978L63.9973 189.978ZM1.03028 -39.9405L1.03026 -39.9401L3.02774 -39.8507L3.02776 -39.8512L1.03028 -39.9405ZM1.03023 -39.9396L1.03021 -39.9392L3.02769 -39.8498L3.02772 -39.8503L1.03023 -39.9396ZM1.02897 -39.8891L1.03069 -28.7113L3.03066 -28.722L3.02894 -39.8999L1.02897 -39.8891ZM1.03241 -17.5335L1.03586 4.82223L3.03583 4.81149L3.03238 -17.5442L1.03241 -17.5335ZM1.03758 16.0001L1.04103 38.3558L3.041 38.345L3.03755 15.9893L1.03758 16.0001ZM1.04276 49.5336L1.04621 71.8893L3.04618 71.8786L3.04273 49.5229L1.04276 49.5336ZM1.04793 83.0671L1.05138 105.423L3.05135 105.412L3.0479 83.0564L1.04793 83.0671ZM1.0531 116.601L1.05483 127.779L3.0548 127.768L3.05307 116.59L1.0531 116.601ZM1.05483 127.779C1.0554 131.518 1.37935 135.183 2.00055 138.744L3.97083 138.39C3.36928 134.942 3.05536 131.392 3.0548 127.768L1.05483 127.779ZM4.82798 149.367C7.35802 156.347 11.0803 162.751 15.7498 168.333L17.2865 167.045C12.7631 161.638 9.15842 155.436 6.70865 148.677L4.82798 149.367ZM23.4968 176.113C29.0592 180.806 35.447 184.555 42.4159 187.115L43.114 185.237C36.3661 182.759 30.1794 179.128 24.7911 174.582L23.4968 176.113ZM53.0267 189.987C56.5855 190.623 60.248 190.962 63.9877 190.978L64.0068 188.978C60.3826 188.963 56.8347 188.634 53.3886 188.018L53.0267 189.987ZM63.9877 190.978C67.612 190.994 71.1599 191.323 74.6061 191.939L74.968 189.97C71.4092 189.334 67.7466 188.994 64.0068 188.978L63.9877 190.978ZM84.8808 194.72C91.6288 197.198 97.8155 200.829 103.204 205.375L104.498 203.844C98.9358 199.15 92.5479 195.401 85.5789 192.842L84.8808 194.72ZM110.708 212.912C115.232 218.319 118.837 224.521 121.286 231.28L123.167 230.59C120.637 223.61 116.915 217.206 112.245 211.624L110.708 212.912ZM124.024 241.567C124.625 245.016 124.939 248.565 124.94 252.19L126.94 252.179C126.939 248.439 126.615 244.775 125.994 241.213L124.024 241.567ZM124.94 252.19L124.941 263.004L126.941 262.993L126.94 252.179L124.94 252.19ZM124.943 273.817L124.946 295.445L126.946 295.434L126.943 273.807L124.943 273.817ZM124.947 306.259L124.95 327.887L126.95 327.876L126.947 306.248L124.947 306.259ZM124.951 338.7L124.954 360.328L126.954 360.317L126.951 338.69L124.951 338.7ZM124.956 371.142L124.959 392.77L126.959 392.759L126.956 371.131L124.956 371.142ZM124.96 403.583L124.962 414.397L126.962 414.387L126.96 403.573L124.96 403.583ZM124.962 414.397C124.962 417.997 124.648 421.524 124.045 424.951L126.014 425.288C126.637 421.746 126.962 418.103 126.962 414.387L124.962 414.397ZM121.297 435.182C118.838 441.909 115.219 448.082 110.685 453.458L112.211 454.743C116.895 449.189 120.634 442.812 123.175 435.861L121.297 435.182ZM103.165 460.947C97.7694 465.459 91.5816 469.052 84.8454 471.483L85.5157 473.364C92.4771 470.852 98.87 467.139 104.443 462.479L103.165 460.947ZM74.603 474.188C71.1733 474.777 67.6457 475.076 64.0461 475.061L64.027 477.061C67.7435 477.077 71.3873 476.767 74.9313 476.159L74.603 474.188ZM64.0461 475.061C60.3297 475.045 56.6858 475.354 53.1418 475.962L53.4701 477.934C56.8998 477.345 60.4274 477.045 64.027 477.061L64.0461 475.061ZM42.5575 478.757C35.596 481.27 29.2031 484.982 23.63 489.643L24.9083 491.174C30.3038 486.662 36.4915 483.069 43.2277 480.638L42.5575 478.757ZM15.8625 497.378C11.1785 502.932 7.43962 509.31 4.89797 516.261L6.77589 516.939C9.23533 510.213 12.8538 504.04 17.3885 498.663L15.8625 497.378ZM2.05887 526.834C1.43574 530.376 1.11104 534.018 1.11154 537.735L3.11151 537.724C3.11103 534.125 3.42549 530.598 4.02853 527.171L2.05887 526.834ZM1.11154 537.735L1.11333 550.971L3.1133 550.961L3.11151 537.724L1.11154 537.735ZM1.11513 564.208L1.11872 590.681L3.11869 590.67L3.1151 564.197L1.11513 564.208ZM1.12051 603.917L1.12411 630.39L3.12408 630.379L3.12048 603.906L1.12051 603.917ZM1.1259 643.626L1.12949 670.099L3.12946 670.088L3.12587 643.616L1.1259 643.626ZM1.13128 683.336L1.13308 696.572L3.13305 696.561L3.13125 683.325L1.13128 683.336ZM1.13308 696.572C1.13358 700.312 1.45747 703.976 2.07861 707.538L4.04889 707.184C3.4474 703.735 3.13354 700.186 3.13305 696.561L1.13308 696.572ZM4.90587 718.161C7.43581 725.141 11.158 731.545 15.8274 737.127L17.3642 735.839C12.8409 730.432 9.23622 724.229 6.78656 717.471L4.90587 718.161ZM23.5744 744.907C29.1367 749.6 35.5245 753.349 42.4935 755.909L43.1915 754.031C36.4436 751.553 30.257 747.922 24.8687 743.376L23.5744 744.907ZM53.1043 758.781C56.663 759.417 60.3255 759.756 64.0653 759.772L64.0844 757.772C60.4601 757.756 56.9123 757.428 53.4661 756.812L53.1043 758.781ZM64.0653 759.772C67.6895 759.788 71.2374 760.117 74.6835 760.733L75.0454 758.764C71.4866 758.128 67.8241 757.788 64.0844 757.772L64.0653 759.772ZM84.9581 763.514C91.706 765.992 97.8926 769.623 103.281 774.169L104.575 772.637C99.0129 767.944 92.6252 764.195 85.6562 761.636L84.9581 763.514ZM110.785 781.705C115.309 787.113 118.913 793.315 121.363 800.074L123.244 799.383C120.714 792.403 116.992 786 112.322 780.417L110.785 781.705ZM124.101 810.36C124.702 813.809 125.016 817.359 125.017 820.983L127.017 820.972C127.016 817.232 126.692 813.568 126.071 810.007L124.101 810.36ZM125.017 820.983L125.018 831.797L127.018 831.786L127.017 820.972L125.017 820.983ZM125.02 842.61L125.022 864.238L127.022 864.227L127.02 842.6L125.02 842.61ZM125.024 875.052L125.027 896.679L127.027 896.668L127.024 875.041L125.024 875.052ZM125.028 907.493L125.031 929.12L127.031 929.109L127.028 907.482L125.028 907.493ZM125.033 939.934L125.036 961.561L127.036 961.551L127.033 939.923L125.033 939.934ZM125.037 972.375L125.039 983.189L127.039 983.178L127.037 972.364L125.037 972.375ZM125.039 983.189C125.039 986.789 124.725 990.315 124.122 993.743L126.091 994.08C126.714 990.538 127.039 986.895 127.039 983.178L125.039 983.189ZM121.374 1003.98C118.914 1010.7 115.296 1016.88 110.761 1022.25L112.287 1023.54C116.971 1017.98 120.71 1011.61 123.252 1004.65L121.374 1003.98ZM103.24 1029.74C97.8445 1034.25 91.6564 1037.85 84.9197 1040.28L85.5899 1042.16C92.5518 1039.65 98.9451 1035.93 104.519 1031.27L103.24 1029.74ZM74.6766 1042.98C71.2466 1043.57 67.7188 1043.87 64.119 1043.86L64.0999 1045.86C67.8166 1045.87 71.4606 1045.56 75.0049 1044.95L74.6766 1042.98ZM64.119 1043.86L54.6125 1043.82L54.5934 1045.82L64.0999 1045.86L64.119 1043.86ZM45.1061 1043.77L35.5996 1043.73L35.5805 1045.73L45.087 1045.77L45.1061 1043.77ZM35.5996 1043.73C29.3493 1043.71 23.4757 1045.36 18.4119 1048.28L19.4025 1050.01C24.1672 1047.27 29.6935 1045.71 35.5805 1045.73L35.5996 1043.73ZM5.79783 1060.84C2.86242 1065.89 1.18025 1071.75 1.18024 1078.01L3.18021 1077.99C3.18021 1072.11 4.76366 1066.59 7.52569 1061.83L5.79783 1060.84ZM125.94 252.184L123.94 252.195L125.94 252.184ZM125.962 414.392L123.962 414.403L125.962 414.392ZM2.11153 537.73L0.111556 537.74L2.11153 537.73ZM2.13306 696.567L4.13303 696.556L2.13306 696.567ZM126.017 820.978L128.017 820.967L126.017 820.978ZM126.039 983.183L124.039 983.194L126.039 983.183ZM64.1094 1044.86L64.0903 1046.86L64.0903 1046.86L64.1094 1044.86ZM35.5901 1044.73L35.571 1046.73L35.5901 1044.73ZM2.02895 -39.8945L0.0314686 -39.9838C0.0298081 -39.9505 0.0289792 -39.9171 0.0289819 -39.8838L2.02895 -39.8945ZM2.05481 127.773L4.05478 127.762L2.05481 127.773ZM64.0366 476.061L64.0175 478.061L64.0175 478.061L64.0366 476.061ZM63.9973 189.978L63.9782 191.978L63.9973 189.978ZM0.0315369 -39.9852L0.0315141 -39.9848L4.02648 -39.8061L4.0265 -39.8065L0.0315369 -39.9852ZM0.0314914 -39.9843L0.0314686 -39.9838L4.02643 -39.8052L4.02646 -39.8056L0.0314914 -39.9843ZM0.0289819 -39.8838L0.0307055 -28.7059L4.03064 -28.7274L4.02892 -39.9053L0.0289819 -39.8838ZM0.0324291 -17.5281L0.0358763 4.82761L4.03582 4.80612L4.03237 -17.5496L0.0324291 -17.5281ZM0.0375999 16.0054L0.0410471 38.3611L4.04099 38.3396L4.03754 15.984L0.0375999 16.0054ZM0.0427783 49.539L0.0462255 71.8947L4.04616 71.8732L4.04272 49.5175L0.0427783 49.539ZM0.0479492 83.0725L0.0513964 105.428L4.05134 105.407L4.04789 83.051L0.0479492 83.0725ZM0.05312 116.606L0.0548436 127.784L4.05478 127.762L4.05306 116.585L0.05312 116.606ZM0.0548436 127.784C0.0554275 131.582 0.384383 135.303 1.01541 138.921L4.95597 138.214C4.36424 134.821 4.05533 131.329 4.05478 127.762L0.0548436 127.784ZM3.88764 149.712C6.45781 156.803 10.2388 163.308 14.9814 168.977L18.0549 166.401C13.6046 161.081 10.0586 154.98 7.64898 148.332L3.88764 149.712ZM22.8496 176.879C28.4991 181.645 34.9874 185.454 42.0669 188.054L43.463 184.298C36.8257 181.86 30.7396 178.289 25.4382 173.816L22.8496 176.879ZM52.8458 190.971C56.4609 191.617 60.1807 191.962 63.9782 191.978L64.0164 187.978C60.4499 187.963 56.9594 187.639 53.5695 187.033L52.8458 190.971ZM63.9782 191.978C67.5447 191.994 71.0353 192.317 74.4252 192.923L75.1489 188.985C71.5338 188.339 67.8139 187.995 64.0164 187.978L63.9782 191.978ZM84.5318 195.659C91.1692 198.096 97.2553 201.668 102.557 206.141L105.145 203.078C99.4959 198.311 93.0075 194.503 85.9279 191.903L84.5318 195.659ZM109.94 213.556C114.39 218.876 117.936 224.977 120.346 231.625L124.107 230.245C121.537 223.154 117.756 216.649 113.014 210.98L109.94 213.556ZM123.039 241.744C123.63 245.136 123.939 248.628 123.94 252.195L127.94 252.174C127.939 248.376 127.61 244.655 126.979 241.037L123.039 241.744ZM123.94 252.195L123.941 263.009L127.941 262.988L127.94 252.174L123.94 252.195ZM123.943 273.823L123.946 295.45L127.946 295.429L127.943 273.801L123.943 273.823ZM123.947 306.264L123.95 327.892L127.95 327.871L127.947 306.243L123.947 306.264ZM123.951 338.706L123.954 360.333L127.954 360.312L127.951 338.684L123.951 338.706ZM123.956 371.147L123.959 392.775L127.959 392.753L127.956 371.126L123.956 371.147ZM123.96 403.589L123.962 414.403L127.962 414.381L127.96 403.567L123.96 403.589ZM123.962 414.403C123.962 417.944 123.653 421.412 123.06 424.783L126.999 425.456C127.632 421.857 127.962 418.156 127.962 414.381L123.962 414.403ZM120.358 434.843C117.94 441.457 114.382 447.528 109.922 452.816L112.974 455.386C117.732 449.743 121.531 443.263 124.114 436.2L120.358 434.843ZM102.526 460.181C97.219 464.619 91.1339 468.152 84.5103 470.543L85.8508 474.305C92.9248 471.752 99.4203 467.98 105.082 463.244L102.526 460.181ZM74.4388 473.202C71.0663 473.781 67.5968 474.076 64.0557 474.061L64.0175 478.061C67.7924 478.077 71.4943 477.763 75.0955 477.145L74.4388 473.202ZM64.0557 474.061C60.2808 474.044 56.5788 474.359 52.9776 474.977L53.6343 478.919C57.0068 478.34 60.4763 478.045 64.0175 478.061L64.0557 474.061ZM42.2223 477.817C35.1483 480.37 28.6528 484.142 22.9909 488.877L25.5475 491.94C30.8541 487.502 36.9392 483.969 43.5629 481.579L42.2223 477.817ZM15.0995 496.736C10.3408 502.378 6.54178 508.858 3.95901 515.922L7.71484 517.278C10.1332 510.664 13.6915 504.594 18.1515 499.306L15.0995 496.736ZM1.07405 526.666C0.440857 530.264 0.111048 533.965 0.111556 537.74L4.1115 537.719C4.11101 534.178 4.42037 530.709 5.01336 527.339L1.07405 526.666ZM0.111556 537.74L0.11335 550.977L4.11329 550.955L4.1115 537.719L0.111556 537.74ZM0.115144 564.213L0.118732 590.686L4.11867 590.665L4.11508 564.192L0.115144 564.213ZM0.120526 603.923L0.124122 630.395L4.12406 630.374L4.12047 603.901L0.120526 603.923ZM0.125916 643.632L0.129504 670.105L4.12944 670.083L4.12585 643.61L0.125916 643.632ZM0.131298 683.341L0.133092 696.577L4.13303 696.556L4.13124 683.32L0.131298 683.341ZM0.133092 696.577C0.133607 700.375 0.462502 704.097 1.09347 707.714L5.03403 707.007C4.44236 703.615 4.13351 700.123 4.13303 696.556L0.133092 696.577ZM3.96553 718.506C6.5356 725.597 10.3165 732.101 15.059 737.771L18.1326 735.195C13.6823 729.875 10.1364 723.774 7.7269 717.126L3.96553 718.506ZM22.9272 745.673C28.5766 750.439 35.0649 754.248 42.1445 756.848L43.5406 753.092C36.9032 750.654 30.8172 747.083 25.5158 742.61L22.9272 745.673ZM52.9234 759.765C56.5384 760.411 60.2582 760.756 64.0557 760.772L64.0939 756.772C60.5274 756.757 57.0369 756.433 53.647 755.827L52.9234 759.765ZM64.0557 760.772C67.6222 760.788 71.1127 761.111 74.5026 761.717L75.2263 757.779C71.6113 757.133 67.8914 756.789 64.0939 756.772L64.0557 760.772ZM84.6091 764.453C91.2464 766.89 97.3325 770.462 102.634 774.935L105.222 771.872C99.573 767.105 93.0847 763.297 86.0052 760.697L84.6091 764.453ZM110.017 782.349C114.467 787.67 118.013 793.771 120.423 800.419L124.184 799.038C121.614 791.948 117.833 785.443 113.091 779.773L110.017 782.349ZM123.116 810.537C123.707 813.93 124.016 817.422 124.017 820.988L128.017 820.967C128.016 817.169 127.687 813.448 127.056 809.83L123.116 810.537ZM124.017 820.988L124.018 831.802L128.018 831.781L128.017 820.967L124.017 820.988ZM124.02 842.616L124.022 864.243L128.022 864.222L128.019 842.594L124.02 842.616ZM124.024 875.057L124.027 896.684L128.027 896.663L128.024 875.036L124.024 875.057ZM124.028 907.498L124.031 929.125L128.031 929.104L128.028 907.477L124.028 907.498ZM124.033 939.939L124.036 961.567L128.036 961.545L128.033 939.918L124.033 939.939ZM124.037 972.38L124.039 983.194L128.039 983.173L128.037 972.359L124.037 972.38ZM124.039 983.194C124.039 986.736 123.73 990.204 123.137 993.575L127.076 994.248C127.709 990.649 128.039 986.948 128.039 983.173L124.039 983.194ZM120.435 1003.64C118.017 1010.25 114.458 1016.32 109.998 1021.61L113.05 1024.18C117.809 1018.54 121.608 1012.06 124.191 1004.99L120.435 1003.64ZM102.601 1028.98C97.2942 1033.41 91.2086 1036.95 84.5845 1039.34L85.9251 1043.1C92.9995 1040.55 99.4954 1036.77 105.158 1032.04L102.601 1028.98ZM74.5124 1042C71.1396 1042.58 67.6699 1042.87 64.1285 1042.86L64.0903 1046.86C67.8654 1046.87 71.5677 1046.56 75.169 1045.94L74.5124 1042ZM64.1285 1042.86L54.6221 1042.82L54.5839 1046.82L64.0903 1046.86L64.1285 1042.86ZM45.1156 1042.77L35.6092 1042.73L35.571 1046.73L45.0774 1046.77L45.1156 1042.77ZM35.6092 1042.73C29.1772 1042.7 23.1299 1044.41 17.9166 1047.41L19.8978 1050.87C24.513 1048.22 29.8656 1046.71 35.571 1046.73L35.6092 1042.73ZM4.93389 1060.34C1.91179 1065.54 0.180258 1071.58 0.180259 1078.01L4.1802 1077.99C4.1802 1072.28 5.71429 1066.94 8.38962 1062.33L4.93389 1060.34Z" fill="#363C50" fill-opacity="0.15"/>
</svg>
